<svg width="33" height="32" viewBox="0 0 33 32" fill="none" xmlns="http://www.w3.org/2000/svg">
<path d="M28.0408 22.8598C27.5972 23.8846 27.0721 24.828 26.4637 25.6953C25.6345 26.8776 24.9555 27.696 24.4322 28.1505C23.621 28.8965 22.7519 29.2786 21.8213 29.3003C21.1531 29.3003 20.3474 29.1102 19.4095 28.7245C18.4685 28.3406 17.6037 28.1505 16.813 28.1505C15.9838 28.1505 15.0944 28.3406 14.1431 28.7245C13.1903 29.1102 12.4228 29.3111 11.8359 29.3311C10.9435 29.3691 10.0539 28.9762 9.16597 28.1505C8.59924 27.6562 7.89037 26.8088 7.04118 25.6084C6.13006 24.3264 5.381 22.8399 4.79417 21.1451C4.1657 19.3146 3.85065 17.542 3.85065 15.8258C3.85065 13.86 4.27542 12.1645 5.12624 10.7437C5.79491 9.60246 6.68448 8.70221 7.79784 8.04132C8.91121 7.38043 10.1142 7.04366 11.4097 7.02211C12.1186 7.02211 13.0482 7.24138 14.2034 7.67231C15.3553 8.10469 16.0949 8.32396 16.4192 8.32396C16.6617 8.32396 17.4833 8.06757 18.8763 7.55643C20.1935 7.0824 21.3052 6.88613 22.216 6.96344C24.6839 7.16261 26.538 8.13547 27.771 9.88818C25.5639 11.2255 24.472 13.0986 24.4938 15.5015C24.5137 17.3732 25.1927 18.9307 26.5271 20.1674C27.1319 20.7414 27.8072 21.185 28.5587 21.5C28.3957 21.9726 28.2237 22.4253 28.0408 22.8598ZM22.3808 0.587078C22.3808 2.05408 21.8448 3.42381 20.7765 4.69163C19.4873 6.19881 17.928 7.06973 16.2371 6.9323C16.2155 6.75631 16.203 6.57108 16.203 6.37643C16.203 4.96811 16.8161 3.46093 17.9048 2.22861C18.4484 1.60466 19.1397 1.08586 19.978 0.671996C20.8145 0.264311 21.6058 0.0388529 22.35 0.000244141C22.3717 0.196359 22.3808 0.392487 22.3808 0.587059V0.587078Z" fill="black"/>
</svg>
