<svg width="463" height="426" viewBox="0 0 463 426" fill="none" xmlns="http://www.w3.org/2000/svg">
<path d="M249.974 425.2C367.349 425.2 462.5 367.887 462.5 297.187C462.5 226.487 367.349 169.174 249.974 169.174C132.599 169.174 37.4478 226.487 37.4478 297.187C37.4478 367.887 132.599 425.2 249.974 425.2Z" fill="#F5F5F5"/>
<path d="M384.787 356.759C412.855 356.759 435.609 341.651 435.609 323.014C435.609 304.378 412.855 289.27 384.787 289.27C356.718 289.27 333.964 304.378 333.964 323.014C333.964 341.651 356.718 356.759 384.787 356.759Z" fill="#E6E6E6"/>
<path d="M49.2475 225.059C48.6384 217.293 46.9453 209.666 44.2236 202.426C39.7437 190.728 31.1694 178.977 21.2898 176.778C11.4101 174.578 7.23673 181.595 9.31354 188.508C11.1134 194.456 18.4515 199.4 24.0292 204.594C29.6069 209.789 40.0107 222.399 42.8984 234.474L48.4761 235.124L49.2475 225.059Z" fill="#BA68C8"/>
<g opacity="0.15">
<path d="M49.2444 225.058C48.6352 217.293 46.9422 209.666 44.2205 202.426C39.7405 190.728 31.1663 178.977 21.2866 176.777C11.4069 174.578 7.23356 181.595 9.31036 188.507C11.1103 194.456 18.4483 199.399 24.026 204.594C29.6037 209.789 40.0075 222.398 42.8953 234.474L48.473 235.123L49.2444 225.058Z" fill="black"/>
</g>
<path d="M45.4185 230.484C45.2593 230.484 45.1062 230.418 44.9918 230.301C44.8774 230.184 44.8105 230.024 44.8054 229.855C43.767 199.357 15.6213 182.307 15.3147 182.119C15.1806 182.028 15.084 181.887 15.0447 181.724C15.0054 181.561 15.0265 181.389 15.1036 181.241C15.1806 181.094 15.3079 180.984 15.4593 180.933C15.6106 180.882 15.7747 180.894 15.918 180.967C16.2147 181.145 44.9834 198.561 46.0416 229.782C46.0469 229.955 45.9877 230.124 45.8767 230.251C45.7656 230.378 45.6117 230.454 45.4482 230.463L45.4185 230.484Z" fill="white"/>
<path d="M53.6872 278.744C53.6872 278.744 47.9315 282.598 38.932 280.954C36.0219 280.544 33.3101 279.165 31.1885 277.016C28.8644 274.481 28.4985 271.926 27.8458 268.533C27.666 267.114 27.2079 265.751 26.5008 264.532C24.5229 261.725 20.7253 261.777 17.5211 261.044C12.9719 259.997 8.78866 256.541 7.47335 251.817C6.15804 247.094 8.29418 241.344 12.606 239.48L7.31512 235.888C5.67033 234.865 4.14931 233.634 2.78571 232.222C1.42457 230.782 0.611395 228.863 0.501221 226.829C0.501221 223.854 2.58792 221.194 5.1592 219.979C7.79309 218.902 10.6511 218.591 13.4367 219.078C16.2584 219.444 19.032 220.147 21.7044 221.173C22.4326 221.521 23.2198 221.71 24.0186 221.728C25.0582 221.533 26.0325 221.057 26.847 220.346C32.8994 216.156 42.7593 216.439 46.003 224.42C46.4777 225.593 46.7645 226.849 47.2788 228.002C49.1578 232.306 54.4487 231.007 57.8705 233.018C58.9444 233.738 59.8555 234.7 60.5391 235.835C61.2228 236.97 61.6622 238.25 61.8263 239.585C62.5087 243.837 61.3912 248.686 60.6494 252.886C59.9077 257.085 58.9682 260.992 57.8903 264.972C57.0101 268.26 56.0409 271.517 55.0124 274.754C54.7948 275.424 54.3201 278.325 53.6872 278.744Z" fill="#BA68C8"/>
<path d="M57.3079 268.92C54.2917 260.132 49.3382 252.233 42.8593 245.88C42.7919 245.726 42.6715 245.606 42.523 245.544C40.6563 243.691 38.6988 241.943 36.6585 240.308C35.8876 234.653 36.5709 228.882 38.6364 223.603C38.7059 223.446 38.7137 223.267 38.6581 223.104C38.6024 222.941 38.4879 222.808 38.3397 222.734C38.1916 222.66 38.0218 222.652 37.8679 222.711C37.7139 222.77 37.5884 222.891 37.5189 223.048C35.4706 228.137 34.6843 233.696 35.2344 239.198C26.9452 232.867 17.7494 227.987 7.99862 224.745C7.84006 224.703 7.67223 224.727 7.53029 224.813C7.38834 224.899 7.28328 225.04 7.23713 225.206C7.21472 225.289 7.20825 225.376 7.21808 225.462C7.22792 225.548 7.25387 225.631 7.29441 225.706C7.33495 225.781 7.38926 225.847 7.45415 225.899C7.51903 225.952 7.59319 225.99 7.67226 226.012C7.92939 226.085 25.4734 231.364 39.9913 244.864C31.0907 243.219 20.4792 247.765 19.9946 248.006C19.8585 248.06 19.7449 248.164 19.6743 248.298C19.6036 248.433 19.5805 248.59 19.609 248.741C19.6376 248.892 19.7159 249.027 19.83 249.123C19.9441 249.218 20.0866 249.268 20.232 249.262C20.3105 249.278 20.3909 249.278 20.4693 249.262C20.588 249.2 33.0587 243.858 41.8703 246.759C48.27 252.974 53.1732 260.72 56.1706 269.35C56.2121 269.479 56.2907 269.59 56.3954 269.669C56.5001 269.748 56.6256 269.79 56.7541 269.79H56.9618C57.0398 269.759 57.1111 269.711 57.1713 269.65C57.2314 269.589 57.2791 269.515 57.3115 269.434C57.3439 269.353 57.3603 269.265 57.3597 269.177C57.3591 269.089 57.3414 269.001 57.3079 268.92Z" fill="white"/>
<path d="M53.8843 277.833C53.9895 279.366 54.4349 280.85 55.1841 282.166C55.9334 283.482 56.9654 284.592 58.1961 285.405L178.799 359.115C180.132 359.833 181.606 360.207 183.101 360.207C184.596 360.207 186.07 359.833 187.403 359.115L352.39 258.238C353.688 257.509 354.773 256.419 355.53 255.086C356.287 253.753 356.687 252.227 356.687 250.671C356.687 249.116 356.287 247.59 355.53 246.257C354.773 244.923 353.688 243.834 352.39 243.104L231.807 169.374C230.473 168.661 228.999 168.29 227.505 168.29C226.011 168.29 224.537 168.661 223.203 169.374L58.1961 270.272C56.9661 271.084 55.9345 272.192 55.1852 273.506C54.436 274.82 53.9902 276.302 53.8843 277.833Z" fill="#37474F"/>
<path d="M183.081 350.359V360.214C181.586 360.258 180.105 359.898 178.779 359.167L58.1461 285.404C56.8854 284.701 55.8235 283.656 55.0684 282.376C54.3134 281.096 53.8924 279.627 53.8481 278.118C53.8039 276.61 54.1381 275.116 54.8167 273.789C55.4953 272.462 56.4939 271.349 57.7109 270.564C55.7825 272.03 55.9308 274.177 58.1461 275.528L178.799 349.259C180.115 350.005 181.588 350.383 183.081 350.359Z" fill="#263238"/>
<path d="M49.8494 270.428C48.6516 269.565 47.6623 268.416 46.9614 267.073C46.2604 265.731 45.8675 264.232 45.8145 262.699V110.304C45.8956 108.724 46.3274 107.187 47.0749 105.817C47.8224 104.446 48.8644 103.282 50.1164 102.418L215.104 1.54104C216.385 0.8211 217.808 0.430772 219.258 0.40166C220.708 0.372548 222.144 0.705466 223.45 1.37346C224.648 2.23644 225.638 3.38569 226.339 4.72836C227.039 6.07103 227.432 7.56947 227.485 9.10264V161.497C227.404 163.077 226.972 164.615 226.225 165.985C225.477 167.355 224.435 168.52 223.183 169.383L58.1962 270.271C56.9135 270.987 55.4901 271.374 54.0404 271.401C52.5908 271.429 51.1553 271.095 49.8494 270.428Z" fill="#455A64"/>
<path d="M57.6819 270.543C56.4473 271.129 55.1066 271.423 53.7536 271.403C52.4007 271.383 51.0682 271.05 49.8494 270.428C48.6516 269.565 47.6623 268.416 46.9614 267.073C46.2604 265.73 45.8675 264.232 45.8145 262.699V110.304C45.8617 108.719 46.298 107.174 47.0803 105.822L55.1502 110.744C54.3748 112.1 53.9391 113.643 53.8843 115.227V267.632C53.8843 270.334 55.5458 271.538 57.6819 270.543Z" fill="#263238"/>
<path d="M53.8843 115.249V267.633C53.8843 270.544 55.8622 271.717 58.1961 270.272L223.183 169.384C224.435 168.52 225.477 167.356 226.225 165.986C226.972 164.616 227.404 163.078 227.485 161.498V9.10343C227.485 6.20238 225.557 5.01892 223.183 6.47468L58.1961 107.352C56.941 108.216 55.8962 109.381 55.1469 110.753C54.3976 112.125 53.965 113.666 53.8843 115.249Z" fill="#37474F"/>
<path d="M58.196 275.53L178.799 349.26C180.133 349.973 181.607 350.344 183.101 350.344C184.595 350.344 186.069 349.973 187.403 349.26L352.39 248.383C354.774 246.927 354.774 244.571 352.39 243.147L231.807 169.416C230.473 168.703 228.999 168.332 227.505 168.332C226.011 168.332 224.537 168.703 223.203 169.416L58.196 270.272C55.8126 271.717 55.8126 274.074 58.196 275.53Z" fill="#455A64"/>
<path d="M60.5112 115.815L219.585 18.5715C221.009 17.7022 222.166 18.4144 222.166 20.1529V152.114C222.116 153.063 221.857 153.985 221.408 154.807C220.96 155.63 220.335 156.329 219.585 156.848L60.5112 254.039C59.0772 254.908 57.9202 254.206 57.9202 252.457V120.496C57.9752 119.555 58.2384 118.641 58.6885 117.828C59.1386 117.015 59.763 116.325 60.5112 115.815Z" fill="#FAFAFA"/>
<path d="M72.1899 271.581L225.339 177.931C226.005 177.569 226.742 177.381 227.49 177.381C228.238 177.381 228.976 177.569 229.641 177.931L237.474 182.717C237.731 182.812 237.954 182.99 238.111 183.226C238.269 183.461 238.354 183.743 238.354 184.031C238.354 184.32 238.269 184.601 238.111 184.837C237.954 185.072 237.731 185.25 237.474 185.346L84.3046 278.986C83.6389 279.347 82.9016 279.535 82.1536 279.535C81.4056 279.535 80.6684 279.347 80.0027 278.986L72.1899 274.21C71.9327 274.115 71.71 273.937 71.5523 273.701C71.3947 273.466 71.3101 273.184 71.3101 272.896C71.3101 272.607 71.3947 272.326 71.5523 272.09C71.71 271.855 71.9327 271.677 72.1899 271.581Z" fill="#37474F"/>
<path d="M92.3739 283.929L245.523 190.289C246.191 189.932 246.927 189.747 247.674 189.747C248.422 189.747 249.158 189.932 249.825 190.289L298.007 219.75C298.264 219.845 298.487 220.023 298.645 220.258C298.802 220.494 298.887 220.775 298.887 221.064C298.887 221.353 298.802 221.634 298.645 221.87C298.487 222.105 298.264 222.283 298.007 222.378L145.036 315.882C144.368 316.241 143.629 316.428 142.88 316.428C142.131 316.428 141.392 316.241 140.724 315.882L92.3838 286.558C92.1216 286.468 91.8927 286.294 91.73 286.058C91.5673 285.823 91.4791 285.539 91.478 285.247C91.4769 284.955 91.563 284.671 91.7239 284.434C91.8849 284.197 92.1124 284.02 92.3739 283.929Z" fill="#263238"/>
<path d="M229.661 232.389L234.447 229.467C234.655 229.341 234.645 229.132 234.447 228.996L228.899 225.602C228.781 225.538 228.651 225.505 228.518 225.505C228.386 225.505 228.255 225.538 228.138 225.602L223.341 228.535C223.134 228.65 223.143 228.86 223.341 228.996L228.879 232.389C229 232.455 229.134 232.49 229.27 232.49C229.406 232.49 229.54 232.455 229.661 232.389ZM220.196 220.743L215.39 223.696C215.182 223.822 215.202 224.031 215.39 224.168L220.928 227.55C221.048 227.615 221.18 227.648 221.314 227.648C221.448 227.648 221.58 227.615 221.7 227.55L226.496 224.618C226.694 224.492 226.684 224.283 226.496 224.147L220.948 220.764C220.832 220.701 220.703 220.669 220.572 220.669C220.442 220.669 220.313 220.701 220.196 220.764V220.743ZM204.699 230.294L196.59 235.248C196.382 235.374 196.392 235.583 196.59 235.719L202.128 239.113C202.248 239.175 202.38 239.207 202.514 239.207C202.648 239.207 202.779 239.175 202.9 239.113L211.009 234.159C211.217 234.033 211.197 233.824 211.009 233.688L205.501 230.294C205.377 230.225 205.24 230.188 205.1 230.188C204.96 230.188 204.823 230.225 204.699 230.294ZM213.185 225.058L208.388 227.99C208.19 228.116 208.2 228.325 208.388 228.462L213.936 231.855C214.055 231.917 214.185 231.949 214.317 231.949C214.449 231.949 214.579 231.917 214.698 231.855L219.494 228.922C219.692 228.797 219.682 228.587 219.494 228.462L213.946 225.058C213.828 224.994 213.698 224.96 213.565 224.96C213.433 224.96 213.302 224.994 213.185 225.058ZM194.395 236.578L189.598 239.5C189.4 239.626 189.41 239.835 189.598 239.972L195.146 243.365C195.264 243.429 195.394 243.463 195.527 243.463C195.659 243.463 195.79 243.429 195.908 243.365L200.704 240.432C200.902 240.317 200.892 240.108 200.704 239.972L195.136 236.578C195.019 236.514 194.888 236.48 194.756 236.48C194.623 236.48 194.493 236.514 194.375 236.578H194.395ZM187.383 240.862L182.596 243.794C182.389 243.909 182.399 244.119 182.596 244.255L188.144 247.648C188.263 247.71 188.393 247.742 188.525 247.742C188.657 247.742 188.787 247.71 188.906 247.648L193.702 244.716C193.91 244.59 193.89 244.381 193.702 244.245L188.164 240.851C188.042 240.78 187.905 240.742 187.765 240.74C187.625 240.738 187.487 240.773 187.363 240.841L187.383 240.862ZM209.199 254.644L213.996 251.712C214.193 251.586 214.184 251.377 213.996 251.241L208.448 247.858C208.33 247.794 208.199 247.76 208.067 247.76C207.934 247.76 207.804 247.794 207.686 247.858L202.89 250.79C202.682 250.916 202.702 251.125 202.89 251.262L208.428 254.644C208.546 254.702 208.676 254.73 208.806 254.727C208.936 254.723 209.064 254.688 209.179 254.623L209.199 254.644ZM202.188 258.928L206.984 255.995C207.192 255.87 207.172 255.66 206.984 255.524L201.446 252.141C201.326 252.077 201.194 252.043 201.06 252.043C200.926 252.043 200.794 252.077 200.674 252.141L195.878 255.074C195.68 255.199 195.69 255.409 195.878 255.545L201.426 258.938C201.544 258.992 201.672 259.017 201.8 259.012C201.929 259.006 202.054 258.971 202.168 258.907L202.188 258.928ZM195.176 263.211L199.972 260.279C200.18 260.153 200.17 259.944 199.972 259.818L194.434 256.425C194.316 256.361 194.186 256.327 194.053 256.327C193.921 256.327 193.79 256.361 193.673 256.425L188.876 259.357C188.669 259.483 188.678 259.692 188.876 259.829L194.424 263.222C194.541 263.274 194.667 263.298 194.793 263.293C194.92 263.287 195.044 263.252 195.156 263.19L195.176 263.211ZM188.174 267.495L192.97 264.562C193.168 264.447 193.158 264.238 192.97 264.102L187.373 260.666C187.255 260.602 187.125 260.569 186.992 260.569C186.86 260.569 186.729 260.602 186.611 260.666L181.815 263.588C181.607 263.714 181.627 263.924 181.815 264.06L187.353 267.453C187.475 267.526 187.612 267.566 187.751 267.57C187.891 267.573 188.029 267.54 188.154 267.474L188.174 267.495ZM222.669 236.725L227.465 233.792C227.663 233.667 227.653 233.457 227.465 233.321L221.917 229.928C221.799 229.866 221.668 229.834 221.536 229.834C221.404 229.834 221.274 229.866 221.156 229.928L216.359 232.86C216.161 232.986 216.171 233.195 216.359 233.321L221.907 236.714C222.024 236.771 222.151 236.8 222.279 236.798C222.408 236.796 222.534 236.764 222.649 236.704L222.669 236.725ZM216.201 250.34L226.901 243.794C227.109 243.669 227.089 243.459 226.901 243.333L213.412 235.102C213.293 235.037 213.161 235.004 213.026 235.004C212.892 235.004 212.76 235.037 212.641 235.102L207.113 238.484C206.905 238.61 206.915 238.82 207.113 238.956L214.233 243.312C214.46 243.449 214.47 243.658 214.233 243.773L209.812 246.486C209.605 246.612 209.615 246.821 209.812 246.957L215.36 250.34C215.485 250.415 215.627 250.455 215.771 250.455C215.915 250.455 216.056 250.415 216.181 250.34H216.201ZM180.381 245.103L175.585 248.036C175.377 248.162 175.397 248.371 175.585 248.497L181.123 251.89C181.242 251.954 181.374 251.988 181.508 251.988C181.643 251.988 181.775 251.954 181.894 251.89L186.681 248.958C186.888 248.832 186.879 248.622 186.681 248.486L181.133 245.093C181.011 245.034 180.877 245.006 180.743 245.012C180.61 245.017 180.479 245.056 180.361 245.124L180.381 245.103ZM173.369 249.387L168.573 252.319C168.375 252.445 168.385 252.655 168.573 252.791L174.121 256.173C174.239 256.238 174.369 256.271 174.502 256.271C174.634 256.271 174.765 256.238 174.882 256.173L179.679 253.241C179.877 253.115 179.867 252.906 179.679 252.77L174.131 249.387C174.009 249.322 173.874 249.29 173.738 249.294C173.602 249.298 173.468 249.337 173.35 249.408L173.369 249.387ZM138.351 297.438C138.469 297.499 138.599 297.532 138.731 297.532C138.863 297.532 138.994 297.499 139.112 297.438L143.908 294.505C144.116 294.379 144.106 294.17 143.908 294.044L138.37 290.651C138.25 290.589 138.118 290.557 137.985 290.557C137.851 290.557 137.719 290.589 137.599 290.651L132.812 293.584C132.605 293.709 132.615 293.919 132.812 294.055L138.351 297.438ZM117.286 283.707L112.489 286.64C112.292 286.765 112.301 286.975 112.489 287.111L118.037 290.494C118.155 290.558 118.286 290.592 118.418 290.592C118.551 290.592 118.681 290.558 118.799 290.494L123.595 287.561C123.793 287.436 123.783 287.226 123.595 287.09L118.047 283.707C117.93 283.643 117.799 283.61 117.667 283.61C117.534 283.61 117.404 283.643 117.286 283.707ZM128.57 293.762C128.688 293.823 128.818 293.856 128.95 293.856C129.083 293.856 129.213 293.823 129.331 293.762L134.128 290.829C134.325 290.703 134.316 290.494 134.128 290.358L128.58 286.964C128.462 286.9 128.331 286.867 128.199 286.867C128.066 286.867 127.936 286.9 127.818 286.964L123.022 289.897C122.824 290.023 122.834 290.222 123.022 290.358L128.57 293.762ZM150.703 300.045L155.499 297.113C155.707 296.998 155.687 296.788 155.499 296.652L149.961 293.259C149.841 293.194 149.709 293.161 149.575 293.161C149.441 293.161 149.309 293.194 149.189 293.259L144.393 296.181C144.195 296.307 144.205 296.516 144.393 296.652L149.941 300.045C150.058 300.111 150.188 300.147 150.321 300.149C150.453 300.15 150.584 300.119 150.703 300.056V300.045ZM142.929 304.318C143.049 304.38 143.181 304.413 143.315 304.413C143.449 304.413 143.581 304.38 143.701 304.318L148.487 301.386C148.695 301.26 148.685 301.051 148.487 300.915L142.939 297.521C142.822 297.457 142.691 297.424 142.558 297.424C142.426 297.424 142.295 297.457 142.178 297.521L137.362 300.464C137.154 300.58 137.164 300.789 137.362 300.925L142.929 304.318ZM124.297 279.392L119.501 282.325C119.293 282.451 119.303 282.66 119.501 282.786L125.039 286.179C125.157 286.243 125.287 286.277 125.42 286.277C125.552 286.277 125.683 286.243 125.801 286.179L130.597 283.247C130.805 283.121 130.795 282.911 130.597 282.775L125.049 279.382C124.93 279.325 124.801 279.297 124.671 279.301C124.541 279.305 124.413 279.339 124.297 279.403V279.392ZM159.336 257.964L154.54 260.897C154.332 261.023 154.352 261.232 154.54 261.368L160.078 264.751C160.197 264.815 160.329 264.849 160.464 264.849C160.598 264.849 160.73 264.815 160.849 264.751L165.646 261.819C165.843 261.693 165.834 261.483 165.646 261.347L160.098 257.964C159.979 257.902 159.848 257.87 159.716 257.872C159.583 257.874 159.453 257.909 159.336 257.975V257.964ZM131.329 275.119L126.532 278.052C126.335 278.178 126.345 278.387 126.532 278.513L132.081 281.906C132.198 281.97 132.329 282.004 132.461 282.004C132.594 282.004 132.724 281.97 132.842 281.906L137.638 278.974C137.846 278.848 137.826 278.638 137.638 278.502L132.1 275.109C131.979 275.049 131.847 275.018 131.713 275.02C131.58 275.022 131.448 275.056 131.329 275.119ZM166.368 253.691L161.581 256.624C161.373 256.75 161.383 256.959 161.581 257.095L167.129 260.478C167.247 260.542 167.377 260.576 167.51 260.576C167.642 260.576 167.773 260.542 167.891 260.478L172.687 257.545C172.895 257.42 172.885 257.21 172.687 257.074L167.149 253.691C167.024 253.62 166.885 253.582 166.743 253.582C166.602 253.582 166.462 253.62 166.338 253.691H166.368ZM152.354 262.258L147.558 265.191C147.36 265.317 147.37 265.526 147.558 265.662L153.086 269.045C153.204 269.107 153.335 269.139 153.467 269.139C153.599 269.139 153.729 269.107 153.847 269.045L158.644 266.113C158.852 265.987 158.832 265.777 158.644 265.652L153.086 262.279C152.97 262.212 152.84 262.175 152.708 262.171C152.575 262.167 152.444 262.197 152.324 262.258H152.354ZM145.352 266.542L140.556 269.474C140.348 269.6 140.358 269.809 140.556 269.946L146.104 273.339C146.222 273.403 146.352 273.437 146.485 273.437C146.617 273.437 146.748 273.403 146.865 273.339L151.662 270.406C151.87 270.281 151.86 270.071 151.662 269.946L146.114 266.552C145.992 266.484 145.857 266.447 145.719 266.445C145.582 266.443 145.446 266.476 145.323 266.542H145.352ZM138.341 270.836L133.544 273.768C133.337 273.884 133.356 274.093 133.544 274.229L139.082 277.622C139.202 277.687 139.334 277.72 139.468 277.72C139.602 277.72 139.734 277.687 139.854 277.622L144.65 274.7C144.848 274.575 144.838 274.365 144.65 274.229L139.102 270.836C138.981 270.766 138.845 270.73 138.707 270.73C138.568 270.73 138.432 270.766 138.311 270.836H138.341ZM174.161 276.072L178.957 273.14C179.165 273.014 179.155 272.805 178.957 272.669L173.409 269.275C173.291 269.213 173.16 269.181 173.028 269.181C172.896 269.181 172.766 269.213 172.647 269.275L167.851 272.208C167.643 272.334 167.653 272.543 167.851 272.669L173.399 276.062C173.514 276.12 173.639 276.148 173.766 276.147C173.893 276.145 174.018 276.112 174.131 276.051L174.161 276.072ZM235.713 211.317L230.917 214.25C230.719 214.375 230.729 214.585 230.917 214.71L236.465 218.104C236.582 218.168 236.713 218.202 236.845 218.202C236.978 218.202 237.108 218.168 237.226 218.104L242.023 215.171C242.23 215.046 242.21 214.836 242.023 214.7L236.484 211.307C236.361 211.238 236.224 211.201 236.085 211.199C235.946 211.197 235.808 211.231 235.683 211.296L235.713 211.317ZM227.228 216.501L222.441 219.434C222.234 219.559 222.244 219.769 222.441 219.905L227.989 223.288C228.107 223.352 228.238 223.386 228.37 223.386C228.503 223.386 228.633 223.352 228.751 223.288L233.547 220.355C233.755 220.23 233.745 220.02 233.547 219.884L228.009 216.501C227.886 216.427 227.748 216.385 227.606 216.382C227.465 216.378 227.324 216.412 227.198 216.48L227.228 216.501ZM242.725 207.075L237.928 210.008C237.721 210.123 237.74 210.333 237.928 210.469L243.466 213.862C243.587 213.924 243.719 213.956 243.852 213.956C243.986 213.956 244.118 213.924 244.238 213.862L249.034 210.93C249.232 210.804 249.222 210.594 249.034 210.458L243.486 207.065C243.369 206.987 243.235 206.942 243.097 206.932C242.959 206.923 242.821 206.951 242.695 207.013L242.725 207.075ZM206.45 246.685L211.246 243.752C211.444 243.627 211.434 243.417 211.246 243.281L205.698 239.898C205.581 239.834 205.45 239.8 205.318 239.8C205.185 239.8 205.055 239.834 204.937 239.898L200.14 242.831C199.943 242.956 199.952 243.166 200.14 243.302L205.688 246.685C205.807 246.734 205.934 246.755 206.061 246.744C206.188 246.733 206.311 246.691 206.42 246.622L206.45 246.685ZM250.498 202.802C250.378 202.738 250.246 202.704 250.112 202.704C249.978 202.704 249.846 202.738 249.727 202.802L244.94 205.724C244.732 205.85 244.742 206.06 244.94 206.196L250.488 209.589C250.606 209.653 250.736 209.687 250.869 209.687C251.001 209.687 251.132 209.653 251.25 209.589L256.046 206.657C256.254 206.541 256.244 206.332 256.046 206.196L250.498 202.802ZM181.172 271.82L185.969 268.898C186.176 268.773 186.157 268.563 185.969 268.427L180.431 265.034C180.311 264.969 180.179 264.936 180.045 264.936C179.911 264.936 179.779 264.969 179.659 265.034L174.843 267.893C174.645 268.008 174.655 268.218 174.843 268.354L180.391 271.747C180.507 271.811 180.635 271.846 180.766 271.847C180.896 271.849 181.025 271.818 181.143 271.758L181.172 271.82ZM267.112 219.277L271.909 216.344C272.116 216.218 272.097 216.009 271.909 215.883L266.371 212.49C266.251 212.426 266.119 212.392 265.985 212.392C265.851 212.392 265.719 212.426 265.599 212.49L260.813 215.423C260.605 215.548 260.615 215.758 260.813 215.894L266.361 219.287C266.479 219.331 266.605 219.348 266.729 219.335C266.854 219.322 266.975 219.281 267.083 219.214L267.112 219.277ZM252.189 218.722L256.985 215.789C257.183 215.663 257.173 215.454 256.985 215.318L251.437 211.935C251.32 211.871 251.189 211.837 251.057 211.837C250.924 211.837 250.794 211.871 250.676 211.935L245.88 214.867C245.672 214.993 245.692 215.203 245.88 215.339L251.418 218.722C251.538 218.771 251.667 218.792 251.795 218.781C251.924 218.77 252.048 218.728 252.159 218.659L252.189 218.722ZM258.419 207.651C258.3 207.587 258.168 207.554 258.034 207.554C257.9 207.554 257.768 207.587 257.648 207.651L252.862 210.584C252.654 210.71 252.664 210.919 252.862 211.055L258.41 214.438C258.527 214.502 258.658 214.536 258.79 214.536C258.923 214.536 259.053 214.502 259.171 214.438L263.967 211.506C264.175 211.38 264.165 211.17 263.967 211.034L258.419 207.651ZM259.893 206.74L273.363 214.983C273.481 215.045 273.611 215.077 273.743 215.077C273.875 215.077 274.006 215.045 274.124 214.983L278.92 212.05C279.118 211.925 279.108 211.715 278.92 211.589L265.451 203.347C265.333 203.285 265.202 203.253 265.07 203.253C264.938 203.253 264.808 203.285 264.689 203.347L259.893 206.28C259.636 206.342 259.646 206.552 259.893 206.677V206.74ZM243.635 216.166L238.838 219.099C238.64 219.224 238.65 219.434 238.838 219.57L244.386 222.953C244.504 223.017 244.634 223.051 244.767 223.051C244.899 223.051 245.03 223.017 245.148 222.953L249.944 220.02C250.152 219.895 250.132 219.685 249.944 219.549L244.406 216.166C244.285 216.092 244.149 216.05 244.009 216.044C243.869 216.039 243.731 216.07 243.605 216.135L243.635 216.166ZM190.864 248.381L186.068 251.314C185.86 251.44 185.88 251.649 186.068 251.785L191.606 255.179C191.725 255.243 191.857 255.276 191.991 255.276C192.125 255.276 192.258 255.243 192.377 255.179L197.164 252.246C197.371 252.12 197.361 251.921 197.164 251.785L191.655 248.402C191.534 248.332 191.4 248.294 191.262 248.29C191.124 248.286 190.988 248.318 190.864 248.381ZM259.31 223.487C259.429 223.551 259.561 223.585 259.695 223.585C259.829 223.585 259.961 223.551 260.081 223.487L264.877 220.554C265.075 220.439 265.065 220.23 264.877 220.094L259.3 216.679C259.181 216.617 259.051 216.585 258.919 216.585C258.787 216.585 258.657 216.617 258.538 216.679L253.742 219.612C253.534 219.737 253.554 219.947 253.742 220.083L259.31 223.487ZM197.866 244.098L193.079 247.03C192.872 247.156 192.881 247.366 193.079 247.502L198.627 250.895C198.746 250.957 198.876 250.989 199.008 250.989C199.14 250.989 199.27 250.957 199.389 250.895L204.185 247.963C204.393 247.837 204.383 247.627 204.185 247.502L198.647 244.108C198.527 244.041 198.394 244.004 198.258 244.003C198.122 244.001 197.987 244.033 197.866 244.098ZM145.342 293.133C145.461 293.195 145.591 293.227 145.723 293.227C145.855 293.227 145.985 293.195 146.104 293.133L150.9 290.201C151.098 290.075 151.088 289.866 150.9 289.74L145.352 286.347C145.235 286.282 145.104 286.249 144.972 286.249C144.839 286.249 144.709 286.282 144.591 286.347L139.794 289.279C139.597 289.405 139.606 289.614 139.794 289.75L145.342 293.133ZM134.8 282.66L130.004 285.582C129.796 285.708 129.806 285.917 130.004 286.053L135.542 289.447C135.661 289.511 135.793 289.545 135.928 289.545C136.062 289.545 136.194 289.511 136.313 289.447L141.1 286.514C141.307 286.399 141.298 286.189 141.1 286.053L135.562 282.66C135.444 282.596 135.313 282.562 135.181 282.562C135.048 282.562 134.918 282.596 134.8 282.66ZM153.086 288.944L157.872 286.011C158.08 285.886 158.07 285.676 157.872 285.54L152.324 282.157C152.207 282.093 152.076 282.059 151.944 282.059C151.811 282.059 151.681 282.093 151.563 282.157L146.767 285.09C146.559 285.215 146.569 285.425 146.767 285.561L152.305 288.944C152.425 289.01 152.559 289.045 152.695 289.045C152.831 289.045 152.965 289.01 153.086 288.944ZM160.088 284.66L164.884 281.728C165.092 281.602 165.072 281.393 164.884 281.257L159.346 277.874C159.227 277.809 159.094 277.776 158.96 277.776C158.826 277.776 158.694 277.809 158.575 277.874L153.778 280.806C153.58 280.932 153.59 281.141 153.778 281.278L159.326 284.66C159.451 284.724 159.589 284.753 159.727 284.746C159.865 284.738 159.999 284.695 160.117 284.619L160.088 284.66ZM167.099 280.377L171.896 277.444C172.094 277.319 172.084 277.109 171.896 276.973L166.348 273.58C166.229 273.518 166.099 273.486 165.967 273.486C165.835 273.486 165.705 273.518 165.586 273.58L160.79 276.512C160.582 276.638 160.602 276.847 160.79 276.973L166.328 280.366C166.454 280.431 166.593 280.462 166.732 280.457C166.872 280.451 167.008 280.41 167.129 280.335L167.099 280.377ZM141.772 278.418L136.976 281.351C136.778 281.477 136.788 281.686 136.976 281.822L142.524 285.215C142.642 285.277 142.773 285.31 142.905 285.31C143.037 285.31 143.167 285.277 143.285 285.215L148.082 282.283C148.289 282.157 148.27 281.948 148.082 281.822L142.544 278.429C142.431 278.363 142.306 278.325 142.178 278.316C142.05 278.307 141.922 278.327 141.802 278.377L141.772 278.418ZM148.784 274.135L143.988 277.067C143.78 277.193 143.8 277.403 143.988 277.539L149.526 280.932C149.646 280.994 149.778 281.026 149.911 281.026C150.045 281.026 150.177 280.994 150.297 280.932L155.093 277.999C155.291 277.874 155.281 277.664 155.093 277.539L149.545 274.145C149.435 274.078 149.312 274.038 149.185 274.029C149.058 274.02 148.931 274.042 148.814 274.093L148.784 274.135ZM176.821 256.959L172.034 259.891C171.827 260.017 171.837 260.227 172.034 260.352L177.582 263.746C177.7 263.81 177.831 263.843 177.963 263.843C178.096 263.843 178.226 263.81 178.344 263.746L183.14 260.813C183.348 260.687 183.338 260.478 183.14 260.342L177.602 256.949C177.48 256.886 177.346 256.855 177.21 256.857C177.075 256.859 176.942 256.894 176.821 256.959ZM169.819 261.242L165.023 264.175C164.815 264.301 164.835 264.51 165.023 264.636L170.561 268.029C170.68 268.093 170.812 268.127 170.946 268.127C171.08 268.127 171.213 268.093 171.332 268.029L176.129 265.097C176.326 264.971 176.316 264.761 176.129 264.625L170.581 261.232C170.464 261.175 170.337 261.146 170.209 261.148C170.08 261.15 169.954 261.182 169.839 261.242H169.819ZM183.833 252.675L179.036 255.608C178.838 255.723 178.848 255.933 179.036 256.069L184.584 259.462C184.702 259.526 184.832 259.56 184.965 259.56C185.097 259.56 185.228 259.526 185.346 259.462L190.142 256.54C190.34 256.414 190.33 256.205 190.142 256.069L184.594 252.675C184.479 252.615 184.352 252.583 184.223 252.583C184.094 252.583 183.967 252.615 183.852 252.675H183.833ZM155.806 269.81L151.009 272.742C150.801 272.868 150.811 273.077 151.009 273.213L156.557 276.596C156.675 276.66 156.805 276.694 156.938 276.694C157.07 276.694 157.201 276.66 157.319 276.596L162.115 273.664C162.323 273.538 162.313 273.328 162.115 273.192L156.567 269.81C156.452 269.749 156.325 269.717 156.196 269.717C156.067 269.717 155.941 269.749 155.825 269.81H155.806ZM162.807 265.526L158.011 268.458C157.813 268.584 157.823 268.794 158.011 268.93L163.559 272.313C163.677 272.377 163.807 272.41 163.94 272.41C164.072 272.41 164.203 272.377 164.32 272.313L169.117 269.38C169.325 269.254 169.305 269.045 169.117 268.909L163.569 265.526C163.454 265.465 163.327 265.433 163.198 265.433C163.069 265.433 162.942 265.465 162.827 265.526H162.807ZM157.694 295.772L162.491 292.84C162.689 292.714 162.679 292.505 162.491 292.379L156.933 288.944C156.815 288.88 156.685 288.846 156.552 288.846C156.42 288.846 156.289 288.88 156.171 288.944L151.375 291.876C151.167 292.002 151.187 292.212 151.375 292.348L156.913 295.741C157.035 295.813 157.171 295.853 157.31 295.859C157.449 295.864 157.588 295.835 157.714 295.772H157.694ZM116.564 291.374L111.026 287.991C110.906 287.926 110.774 287.893 110.64 287.893C110.506 287.893 110.374 287.926 110.254 287.991L105.458 290.923C105.26 291.049 105.27 291.258 105.458 291.395L111.006 294.777C111.124 294.842 111.254 294.875 111.387 294.875C111.519 294.875 111.65 294.842 111.767 294.777L116.564 291.845C116.821 291.719 116.801 291.51 116.584 291.374H116.564ZM127.067 294.641L121.528 291.248C121.408 291.186 121.276 291.154 121.143 291.154C121.009 291.154 120.877 291.186 120.757 291.248L113.379 295.751C113.182 295.877 113.191 296.087 113.379 296.223L118.927 299.616C119.045 299.68 119.176 299.714 119.308 299.714C119.441 299.714 119.571 299.68 119.689 299.616L127.067 295.113C127.373 294.987 127.304 294.777 127.086 294.641H127.067ZM108.059 284.828L102.521 281.435C102.401 281.37 102.269 281.337 102.135 281.337C102.001 281.337 101.869 281.37 101.749 281.435L95.8156 285.048C95.6178 285.174 95.6277 285.383 95.8156 285.509L101.364 288.902C101.481 288.966 101.612 289 101.744 289C101.877 289 102.007 288.966 102.125 288.902L108.059 285.289C108.316 285.163 108.296 284.954 108.079 284.828H108.059ZM112.588 282.053C112.706 282.117 112.837 282.15 112.969 282.15C113.101 282.15 113.232 282.117 113.35 282.053L118.146 279.12C118.344 278.994 118.334 278.785 118.146 278.649L112.588 275.329C112.47 275.265 112.34 275.231 112.207 275.231C112.075 275.231 111.944 275.265 111.827 275.329L107.03 278.261C106.833 278.387 106.842 278.596 107.03 278.733L112.588 282.053ZM136.857 298.37L131.329 294.966C131.211 294.902 131.081 294.868 130.948 294.868C130.816 294.868 130.685 294.902 130.567 294.966L121.34 300.601C121.143 300.726 121.153 300.936 121.34 301.072L126.889 304.455C127.006 304.519 127.137 304.552 127.269 304.552C127.402 304.552 127.532 304.519 127.65 304.455L136.867 298.82C137.085 298.705 137.075 298.495 136.857 298.37ZM141.456 305.24L135.908 301.847C135.789 301.785 135.659 301.753 135.527 301.753C135.395 301.753 135.265 301.785 135.146 301.847L129.213 305.45C129.015 305.575 129.025 305.785 129.213 305.921L134.761 309.314C134.879 309.376 135.009 309.408 135.141 309.408C135.273 309.408 135.404 309.376 135.522 309.314L141.456 305.711C141.683 305.575 141.673 305.366 141.456 305.23V305.24ZM164.706 250.193C164.826 250.255 164.958 250.288 165.092 250.288C165.225 250.288 165.357 250.255 165.478 250.193L170.274 247.261C170.472 247.135 170.462 246.926 170.274 246.8L164.726 243.407C164.608 243.342 164.478 243.309 164.345 243.309C164.213 243.309 164.082 243.342 163.964 243.407L159.168 246.339C158.96 246.465 158.98 246.674 159.168 246.811L164.706 250.193ZM150.693 258.76C150.812 258.825 150.944 258.858 151.078 258.858C151.212 258.858 151.345 258.825 151.464 258.76L156.251 255.828C156.458 255.713 156.448 255.503 156.251 255.367L150.703 251.974C150.584 251.912 150.454 251.88 150.322 251.88C150.19 251.88 150.059 251.912 149.941 251.974L145.174 254.906C144.967 255.032 144.976 255.241 145.174 255.378L150.693 258.76ZM119.61 277.759C119.729 277.823 119.861 277.857 119.995 277.857C120.13 277.857 120.262 277.823 120.381 277.759L125.168 274.826C125.375 274.7 125.366 274.491 125.168 274.355L119.62 270.972C119.502 270.908 119.371 270.874 119.239 270.874C119.106 270.874 118.976 270.908 118.858 270.972L114.062 273.905C113.854 274.03 113.874 274.24 114.062 274.376L119.61 277.759ZM157.704 254.477C157.823 254.539 157.953 254.571 158.085 254.571C158.217 254.571 158.347 254.539 158.466 254.477L163.262 251.544C163.47 251.419 163.45 251.209 163.262 251.084L157.724 247.69C157.605 247.626 157.472 247.592 157.338 247.592C157.204 247.592 157.072 247.626 156.953 247.69L152.156 250.623C151.959 250.748 151.968 250.958 152.156 251.094L157.704 254.477ZM143.691 263.044C143.809 263.108 143.939 263.142 144.072 263.142C144.204 263.142 144.335 263.108 144.452 263.044L149.249 260.122C149.447 259.996 149.437 259.787 149.249 259.651L143.701 256.257C143.583 256.193 143.452 256.159 143.32 256.159C143.188 256.159 143.057 256.193 142.939 256.257L138.143 259.19C137.945 259.305 137.955 259.514 138.143 259.651L143.691 263.044ZM145.313 305.774C145.193 305.71 145.061 305.676 144.927 305.676C144.793 305.676 144.661 305.71 144.541 305.774L137.164 310.288C136.966 310.414 136.976 310.623 137.164 310.749L142.712 314.142C142.83 314.207 142.96 314.24 143.093 314.24C143.225 314.24 143.356 314.207 143.473 314.142L150.851 309.628C151.049 309.503 151.039 309.293 150.851 309.157L145.313 305.774ZM133.633 269.192C133.752 269.253 133.882 269.286 134.014 269.286C134.146 269.286 134.276 269.253 134.395 269.192L139.191 266.259C139.389 266.133 139.379 265.924 139.191 265.788L133.643 262.395C133.525 262.333 133.394 262.3 133.262 262.3C133.13 262.3 133 262.333 132.882 262.395L128.085 265.327C127.887 265.453 127.897 265.662 128.085 265.788L133.633 269.192ZM126.622 273.475C126.739 273.539 126.87 273.573 127.002 273.573C127.135 273.573 127.265 273.539 127.383 273.475L132.179 270.543C132.387 270.417 132.377 270.207 132.179 270.071L126.641 266.678C126.521 266.616 126.389 266.584 126.256 266.584C126.122 266.584 125.99 266.616 125.87 266.678L121.083 269.611C120.876 269.736 120.886 269.946 121.083 270.071L126.622 273.475ZM275.143 226.346C275.025 226.282 274.894 226.248 274.762 226.248C274.629 226.248 274.499 226.282 274.381 226.346L262.573 233.562C262.375 233.688 262.385 233.897 262.573 234.033L268.121 237.427C268.24 237.488 268.37 237.521 268.502 237.521C268.634 237.521 268.764 237.488 268.883 237.427L280.71 230.294C280.918 230.169 280.908 229.959 280.71 229.834L275.143 226.346ZM259.646 235.772C259.527 235.71 259.397 235.678 259.265 235.678C259.133 235.678 259.003 235.71 258.884 235.772L254.088 238.704C253.89 238.83 253.9 239.039 254.088 239.165L259.636 242.558C259.754 242.62 259.885 242.653 260.017 242.653C260.149 242.653 260.279 242.62 260.397 242.558L265.194 239.626C265.392 239.5 265.382 239.291 265.194 239.155L259.646 235.772ZM164.706 291.395L169.503 288.462C169.71 288.336 169.7 288.127 169.503 288.001L163.964 284.755C163.847 284.69 163.716 284.657 163.584 284.657C163.451 284.657 163.321 284.69 163.203 284.755L158.407 287.687C158.199 287.813 158.209 288.022 158.407 288.158L163.955 291.552C164.077 291.604 164.21 291.626 164.342 291.615C164.474 291.604 164.602 291.561 164.716 291.489L164.706 291.395ZM245.622 244.349C245.505 244.285 245.374 244.251 245.242 244.251C245.109 244.251 244.979 244.285 244.861 244.349L240.064 247.282C239.857 247.407 239.877 247.617 240.064 247.753L245.603 251.136C245.722 251.2 245.854 251.234 245.988 251.234C246.122 251.234 246.255 251.2 246.374 251.136L251.17 248.203C251.368 248.078 251.358 247.868 251.17 247.732L245.622 244.349ZM282.145 222.021C282.025 221.956 281.893 221.923 281.759 221.923C281.625 221.923 281.493 221.956 281.373 222.021L276.577 224.953C276.379 225.079 276.389 225.288 276.577 225.424L282.125 228.807C282.242 228.871 282.373 228.905 282.505 228.905C282.638 228.905 282.768 228.871 282.886 228.807L287.683 225.875C287.89 225.749 287.871 225.54 287.683 225.403L282.145 222.021ZM294.694 221.12L281.225 212.888C281.107 212.824 280.976 212.79 280.844 212.79C280.712 212.79 280.581 212.824 280.463 212.888L275.667 215.821C275.459 215.936 275.479 216.145 275.667 216.281L289.127 224.513C289.246 224.578 289.378 224.611 289.512 224.611C289.646 224.611 289.778 224.578 289.898 224.513L294.694 221.581C294.932 221.56 294.922 221.35 294.704 221.214L294.694 221.12ZM219.435 260.352C219.316 260.29 219.186 260.258 219.054 260.258C218.922 260.258 218.792 260.29 218.673 260.352L212.74 263.955C212.532 264.081 212.552 264.29 212.74 264.426L218.278 267.82C218.398 267.882 218.53 267.914 218.663 267.914C218.797 267.914 218.929 267.882 219.049 267.82L224.983 264.217C225.181 264.091 225.171 263.882 224.983 263.746L219.435 260.352ZM237.147 249.628C237.029 249.563 236.899 249.53 236.766 249.53C236.634 249.53 236.503 249.563 236.386 249.628L229.008 254.142C228.81 254.267 228.82 254.477 229.008 254.613L234.556 257.996C234.674 258.06 234.804 258.094 234.937 258.094C235.069 258.094 235.2 258.06 235.317 257.996L242.695 253.482C242.893 253.356 242.883 253.147 242.695 253.021L237.147 249.628ZM203.216 270.375C203.098 270.311 202.968 270.277 202.835 270.277C202.703 270.277 202.572 270.311 202.455 270.375L162.985 294.463C162.778 294.589 162.797 294.798 162.985 294.935L168.523 298.328C168.644 298.39 168.776 298.422 168.909 298.422C169.043 298.422 169.175 298.39 169.295 298.328L208.754 274.24C208.962 274.114 208.952 273.904 208.754 273.779L203.216 270.375ZM161.541 295.856C161.422 295.792 161.29 295.758 161.156 295.758C161.022 295.758 160.89 295.792 160.77 295.856L154.836 299.459C154.639 299.585 154.648 299.794 154.836 299.93L160.384 303.313C160.502 303.377 160.633 303.411 160.765 303.411C160.898 303.411 161.028 303.377 161.146 303.313L167.08 299.7C167.287 299.585 167.268 299.375 167.08 299.239L161.541 295.856ZM211.335 265.411C211.216 265.346 211.084 265.313 210.95 265.313C210.816 265.313 210.683 265.346 210.564 265.411L204.63 269.014C204.423 269.139 204.432 269.349 204.63 269.485L210.178 272.868C210.296 272.932 210.427 272.966 210.559 272.966C210.691 272.966 210.822 272.932 210.94 272.868L216.873 269.254C217.081 269.139 217.061 268.93 216.873 268.794L211.335 265.411ZM153.422 300.82C153.304 300.756 153.174 300.723 153.041 300.723C152.909 300.723 152.778 300.756 152.661 300.82L146.727 304.434C146.519 304.559 146.539 304.769 146.727 304.905L152.265 308.288C152.385 308.352 152.517 308.386 152.651 308.386C152.785 308.386 152.917 308.352 153.036 308.288L158.97 304.675C159.178 304.549 159.168 304.339 158.97 304.214L153.422 300.82ZM227.594 255.493C227.474 255.428 227.342 255.395 227.208 255.395C227.074 255.395 226.942 255.428 226.822 255.493L220.889 259.106C220.681 259.232 220.691 259.441 220.889 259.567L226.437 262.96C226.555 263.022 226.685 263.054 226.817 263.054C226.949 263.054 227.08 263.022 227.198 262.96L233.132 259.347C233.34 259.221 233.32 259.012 233.132 258.876L227.594 255.493ZM252.674 240.15C252.554 240.088 252.422 240.055 252.288 240.055C252.154 240.055 252.022 240.088 251.902 240.15L247.116 243.082C246.908 243.208 246.918 243.417 247.116 243.543L252.664 246.936C252.781 247.001 252.912 247.034 253.045 247.034C253.177 247.034 253.308 247.001 253.425 246.936L258.222 244.004C258.429 243.878 258.419 243.669 258.222 243.532L252.674 240.15ZM268.032 228.346L272.819 225.414C273.026 225.288 273.016 225.079 272.819 224.943L267.271 221.56C267.153 221.496 267.022 221.462 266.89 221.462C266.757 221.462 266.627 221.496 266.509 221.56L261.713 224.492C261.505 224.618 261.515 224.827 261.713 224.964L267.251 228.346C267.368 228.407 267.496 228.439 267.627 228.439C267.757 228.439 267.886 228.407 268.002 228.346H268.032ZM236.692 228.126L241.489 225.194C241.696 225.079 241.676 224.869 241.489 224.733L235.95 221.34C235.83 221.278 235.698 221.246 235.565 221.246C235.431 221.246 235.299 221.278 235.179 221.34L230.383 224.272C230.185 224.398 230.195 224.607 230.383 224.744L235.931 228.137C236.045 228.194 236.171 228.223 236.298 228.222C236.425 228.22 236.549 228.187 236.662 228.126H236.692ZM220.869 257.21L234.882 248.643C235.08 248.518 235.07 248.308 234.882 248.172L229.235 244.779C229.117 244.717 228.987 244.685 228.855 244.685C228.723 244.685 228.592 244.717 228.474 244.779L214.451 253.335C214.243 253.461 214.253 253.67 214.451 253.807L219.989 257.189C220.11 257.262 220.247 257.302 220.387 257.306C220.526 257.31 220.665 257.277 220.79 257.21H220.869ZM260.308 232.609C260.426 232.673 260.557 232.707 260.689 232.707C260.822 232.707 260.952 232.673 261.07 232.609L265.866 229.676C266.064 229.551 266.054 229.341 265.866 229.205L260.318 225.822C260.201 225.758 260.07 225.725 259.938 225.725C259.805 225.725 259.675 225.758 259.557 225.822L254.76 228.755C254.563 228.881 254.572 229.09 254.76 229.226L260.308 232.609ZM253.148 227.791L257.945 224.859C258.143 224.733 258.133 224.524 257.945 224.388L252.397 220.994C252.279 220.93 252.148 220.896 252.016 220.896C251.884 220.896 251.753 220.93 251.635 220.994L246.839 223.927C246.641 224.042 246.651 224.251 246.839 224.388L252.387 227.781C252.494 227.832 252.61 227.859 252.727 227.861C252.844 227.863 252.961 227.839 253.069 227.791H253.148ZM213.857 261.494L218.654 258.561C218.851 258.436 218.842 258.226 218.654 258.101L213.106 254.707C212.988 254.643 212.857 254.609 212.725 254.609C212.592 254.609 212.462 254.643 212.344 254.707L207.548 257.64C207.35 257.765 207.36 257.975 207.548 258.111L213.096 261.504C213.204 261.552 213.321 261.576 213.438 261.574C213.555 261.572 213.671 261.545 213.778 261.494H213.857ZM244.811 242.087C244.929 242.151 245.06 242.185 245.192 242.185C245.325 242.185 245.455 242.151 245.573 242.087L250.369 239.155C250.577 239.029 250.567 238.82 250.369 238.694L244.821 235.301C244.703 235.239 244.573 235.206 244.441 235.206C244.309 235.206 244.178 235.239 244.06 235.301L239.263 238.233C239.056 238.359 239.066 238.568 239.263 238.704L244.811 242.087ZM178.819 282.932L183.615 280C183.813 279.874 183.803 279.665 183.615 279.529L178.067 276.146C177.949 276.081 177.819 276.048 177.686 276.048C177.554 276.048 177.423 276.081 177.305 276.146L172.509 279.078C172.301 279.204 172.321 279.413 172.509 279.55L178.047 282.932C178.157 282.982 178.275 283.007 178.394 283.005C178.514 283.003 178.631 282.975 178.739 282.922L178.819 282.932ZM185.82 278.649L190.617 275.716C190.824 275.591 190.815 275.381 190.617 275.245L185.079 271.852C184.96 271.79 184.83 271.758 184.698 271.758C184.566 271.758 184.436 271.79 184.317 271.852L179.521 274.784C179.313 274.91 179.323 275.119 179.521 275.245L185.069 278.638C185.172 278.685 185.283 278.709 185.395 278.709C185.507 278.709 185.618 278.685 185.721 278.638L185.82 278.649ZM171.807 287.216L176.603 284.283C176.811 284.158 176.791 283.948 176.603 283.812L171.065 280.429C170.946 280.365 170.813 280.331 170.679 280.331C170.545 280.331 170.413 280.365 170.294 280.429L165.497 283.362C165.3 283.487 165.309 283.697 165.497 283.833L171.045 287.216C171.153 287.265 171.27 287.29 171.388 287.288C171.505 287.286 171.621 287.258 171.728 287.205L171.807 287.216ZM199.765 270.092L204.551 267.17C204.759 267.045 204.749 266.835 204.551 266.699L199.003 263.306C198.885 263.241 198.755 263.208 198.622 263.208C198.49 263.208 198.359 263.241 198.242 263.306L193.445 266.238C193.237 266.353 193.257 266.563 193.445 266.699L198.983 270.092C199.104 270.158 199.238 270.193 199.374 270.193C199.51 270.193 199.644 270.158 199.765 270.092ZM192.753 274.386L197.549 271.454C197.747 271.328 197.737 271.119 197.549 270.983L192.001 267.589C191.883 267.527 191.753 267.495 191.621 267.495C191.488 267.495 191.358 267.527 191.24 267.589L186.443 270.522C186.246 270.647 186.255 270.857 186.443 270.983L191.991 274.376C192.111 274.434 192.242 274.463 192.374 274.459C192.507 274.456 192.636 274.42 192.753 274.355V274.386ZM206.766 265.809L211.563 262.876C211.77 262.751 211.751 262.541 211.563 262.415L206.025 259.022C205.905 258.96 205.773 258.928 205.639 258.928C205.505 258.928 205.373 258.96 205.253 259.022L200.467 261.955C200.259 262.08 200.269 262.29 200.467 262.426L206.015 265.819C206.135 265.873 206.265 265.897 206.395 265.89C206.525 265.883 206.652 265.844 206.766 265.777V265.809ZM238.828 202.425C238.948 202.49 239.08 202.523 239.214 202.523C239.348 202.523 239.48 202.49 239.6 202.425L244.396 199.493C244.594 199.378 244.584 199.168 244.396 199.032L242.923 198.131C242.803 198.067 242.671 198.033 242.537 198.033C242.403 198.033 242.271 198.067 242.151 198.131L237.355 201.064C237.157 201.19 237.167 201.399 237.355 201.535L238.828 202.425ZM204.353 225.99C204.471 226.054 204.602 226.088 204.734 226.088C204.867 226.088 204.997 226.054 205.115 225.99L209.911 223.057C210.109 222.932 210.099 222.722 209.911 222.586L204.363 219.203C204.245 219.139 204.115 219.106 203.982 219.106C203.85 219.106 203.719 219.139 203.602 219.203L198.805 222.136C198.607 222.261 198.617 222.471 198.805 222.607L204.353 225.99ZM218.357 217.391C218.475 217.456 218.605 217.489 218.738 217.489C218.87 217.489 219.001 217.456 219.118 217.391L223.915 214.459C224.123 214.333 224.103 214.124 223.915 213.988L218.377 210.594C218.257 210.532 218.125 210.5 217.991 210.5C217.857 210.5 217.725 210.532 217.605 210.594L212.809 213.527C212.611 213.653 212.621 213.862 212.809 213.988L218.357 217.391ZM195.779 231.195C195.899 231.257 196.031 231.289 196.165 231.289C196.298 231.289 196.43 231.257 196.55 231.195L201.347 228.263C201.545 228.137 201.535 227.927 201.347 227.791L195.799 224.398C195.68 224.336 195.55 224.304 195.418 224.304C195.286 224.304 195.156 224.336 195.037 224.398L190.241 227.331C190.033 227.446 190.053 227.655 190.241 227.791L195.779 231.195ZM211.345 221.675C211.465 221.739 211.597 221.773 211.731 221.773C211.865 221.773 211.997 221.739 212.117 221.675L216.903 218.743C217.111 218.617 217.101 218.407 216.903 218.271L211.355 214.888C211.237 214.824 211.107 214.791 210.974 214.791C210.842 214.791 210.711 214.824 210.594 214.888L205.797 217.821C205.59 217.947 205.599 218.156 205.797 218.292L211.345 221.675ZM181.766 239.72C181.883 239.785 182.014 239.818 182.146 239.818C182.279 239.818 182.409 239.785 182.527 239.72L187.324 236.788C187.531 236.662 187.521 236.453 187.324 236.316L181.766 232.996C181.648 232.932 181.517 232.899 181.385 232.899C181.252 232.899 181.122 232.932 181.004 232.996L176.208 235.929C176 236.055 176.01 236.264 176.208 236.4L181.766 239.72ZM188.787 235.531C188.905 235.595 189.035 235.629 189.168 235.629C189.3 235.629 189.431 235.595 189.549 235.531L194.345 232.598C194.553 232.473 194.533 232.263 194.345 232.127L188.797 228.734C188.679 228.672 188.548 228.64 188.416 228.64C188.284 228.64 188.154 228.672 188.036 228.734L183.239 231.666C183.041 231.792 183.051 232.002 183.239 232.127L188.787 235.531ZM224.815 211.013C224.933 211.078 225.063 211.111 225.196 211.111C225.328 211.111 225.459 211.078 225.576 211.013L230.373 208.081C230.58 207.955 230.571 207.746 230.373 207.61L228.899 206.709C228.781 206.645 228.651 206.611 228.518 206.611C228.386 206.611 228.255 206.645 228.138 206.709L223.341 209.641C223.134 209.767 223.153 209.977 223.341 210.113L224.815 211.013ZM245.84 198.163C245.958 198.225 246.089 198.257 246.221 198.257C246.353 198.257 246.483 198.225 246.601 198.163L251.398 195.23C251.606 195.105 251.596 194.895 251.398 194.77L249.924 193.869C249.807 193.805 249.676 193.771 249.544 193.771C249.411 193.771 249.281 193.805 249.163 193.869L244.366 196.801C244.159 196.927 244.179 197.136 244.366 197.273L245.84 198.163ZM257.49 205.285C257.608 205.346 257.739 205.379 257.871 205.379C258.003 205.379 258.133 205.346 258.251 205.285L263.048 202.352C263.255 202.226 263.236 202.017 263.048 201.891L257.5 198.498C257.382 198.434 257.251 198.4 257.119 198.4C256.987 198.4 256.856 198.434 256.738 198.498L251.942 201.43C251.744 201.556 251.754 201.766 251.942 201.902L257.49 205.285ZM275.004 224.136L279.801 221.204C280.008 221.078 279.989 220.869 279.801 220.732L274.263 217.339C274.142 217.277 274.01 217.245 273.877 217.245C273.743 217.245 273.611 217.277 273.491 217.339L268.695 220.272C268.497 220.397 268.507 220.607 268.695 220.732L274.243 224.126C274.365 224.181 274.498 224.203 274.631 224.192C274.763 224.182 274.891 224.137 275.004 224.063V224.136ZM231.826 206.751C231.945 206.813 232.075 206.845 232.207 206.845C232.339 206.845 232.47 206.813 232.588 206.751L237.384 203.818C237.582 203.693 237.572 203.483 237.384 203.347L235.911 202.446C235.793 202.382 235.663 202.348 235.53 202.348C235.398 202.348 235.267 202.382 235.149 202.446L230.353 205.379C230.145 205.504 230.155 205.714 230.353 205.85L231.826 206.751ZM174.764 244.119C174.883 244.183 175.015 244.217 175.149 244.217C175.284 244.217 175.416 244.183 175.535 244.119L180.332 241.186C180.529 241.061 180.52 240.851 180.332 240.715L174.784 237.332C174.666 237.268 174.535 237.235 174.403 237.235C174.27 237.235 174.14 237.268 174.022 237.332L169.226 240.265C169.018 240.39 169.038 240.6 169.226 240.736L174.764 244.119Z" fill="#455A64"/>
<path d="M205.846 288.599L253.168 259.619C253.968 259.19 254.852 258.967 255.749 258.967C256.646 258.967 257.53 259.19 258.33 259.619L285.467 276.209C286.891 277.089 286.891 278.502 285.467 279.351L238.136 308.34C237.337 308.774 236.452 309 235.555 309C234.657 309 233.772 308.774 232.973 308.34L205.837 291.751C204.422 290.882 204.422 289.468 205.846 288.599Z" fill="#263238"/>
<path d="M216.192 33.6313V41.2871L108.485 107.142C107.743 107.593 107.14 107.226 107.14 106.315L107.219 103.571C106.577 103.3 105.915 103.082 105.241 102.922L72.9813 122.642C72.5885 122.916 72.2614 123.283 72.0261 123.713C71.7909 124.144 71.654 124.628 71.6264 125.125V128.015C71.6038 128.512 71.4701 128.996 71.2363 129.428C71.0025 129.859 70.6752 130.226 70.2815 130.497L66.563 132.77V125.125C66.5856 124.628 66.7193 124.143 66.9531 123.712C67.187 123.28 67.5142 122.914 67.908 122.642L214.847 32.8039C215.589 32.3536 216.192 32.7201 216.192 33.6313Z" fill="#BA68C8"/>
<path d="M216.202 148.271C216.176 148.767 216.041 149.25 215.805 149.68C215.569 150.109 215.241 150.474 214.847 150.743L67.908 240.581C67.1663 241.042 66.563 240.665 66.563 239.754V132.771L70.2815 130.498C71.0232 130.048 72.2594 123.104 72.9813 122.643L105.241 102.922C105.983 102.472 107.743 107.593 108.485 107.112L216.192 41.2881V148.271H216.202Z" fill="#EBEBEB"/>
<path d="M72.9822 162.094L137.521 122.6C138.263 122.139 138.866 122.516 138.866 123.427V190.602C138.844 191.099 138.71 191.583 138.476 192.015C138.242 192.446 137.915 192.813 137.521 193.084L72.9822 232.578C72.2405 233.029 71.6372 232.662 71.6372 231.751V164.576C71.6598 164.079 71.7935 163.595 72.0274 163.164C72.2612 162.732 72.5884 162.366 72.9822 162.094Z" fill="#FAFAFA"/>
<path d="M72.9822 144.354L209.784 60.7155C210.526 60.2547 211.129 60.6317 211.129 61.5429V71.6075C211.105 72.1027 210.971 72.5847 210.737 73.0143C210.503 73.4439 210.177 73.8088 209.784 74.0792L72.9822 157.728C72.2405 158.178 71.6372 157.812 71.6372 156.901V146.836C71.6598 146.339 71.7935 145.855 72.0274 145.423C72.2612 144.992 72.5884 144.625 72.9822 144.354Z" fill="#455A64"/>
<path d="M160.404 98.8798V101.54C160.404 102.095 160.77 102.315 161.215 102.043L200.981 77.7241V73.074L161.215 97.3926C160.98 97.556 160.784 97.7757 160.643 98.034C160.502 98.2923 160.42 98.582 160.404 98.8798Z" fill="#FAFAFA"/>
<path d="M205.244 70.4655C205.699 70.1932 206.055 70.4655 206.055 70.9578V73.6284C206.041 73.9266 205.96 74.2169 205.819 74.4755C205.678 74.734 205.481 74.9534 205.244 75.1156L200.982 77.7234V73.0733L205.244 70.4655Z" fill="#BA68C8"/>
<path d="M204.937 74.1201L204.453 73.963C204.504 73.7508 204.531 73.5327 204.532 73.3137C204.55 73.1143 204.519 72.9134 204.443 72.73C204.367 72.5467 204.248 72.3871 204.097 72.2664C203.992 72.1999 203.872 72.1648 203.751 72.1648C203.629 72.1648 203.509 72.1999 203.404 72.2664C203.094 72.5074 202.843 72.823 202.671 73.1872C202.499 73.5515 202.412 73.9538 202.415 74.361C202.399 74.5602 202.431 74.7605 202.507 74.9435C202.583 75.1264 202.701 75.2863 202.851 75.4083C202.945 75.4629 203.05 75.4917 203.157 75.4921C203.294 75.4877 203.427 75.4443 203.543 75.3664C203.898 75.1124 204.168 74.7458 204.314 74.3191L204.789 74.4762H204.838C204.876 74.4779 204.912 74.4665 204.943 74.4438C204.973 74.421 204.996 74.3882 205.007 74.3505C205.022 74.3096 205.024 74.2641 205.011 74.222C204.999 74.1799 204.973 74.1438 204.937 74.1201ZM203.404 75.0837C203.354 75.116 203.296 75.133 203.236 75.133C203.177 75.133 203.119 75.116 203.068 75.0837C202.972 74.9885 202.898 74.8705 202.854 74.7394C202.809 74.6083 202.794 74.4679 202.811 74.3296C202.807 73.9923 202.874 73.6583 203.007 73.3521C203.141 73.0459 203.337 72.7751 203.582 72.5596C203.649 72.5179 203.723 72.4928 203.8 72.4863C203.838 72.471 203.88 72.471 203.919 72.4863C204.087 72.5806 204.176 72.8633 204.176 73.2299C204.197 73.5817 204.138 73.9338 204.004 74.2564C203.869 74.579 203.664 74.8628 203.404 75.0837Z" fill="#FAFAFA"/>
<path d="M216.192 41.2881V50.5987L66.563 142.081V132.771L69.3419 131.074C70.0837 130.613 70.3309 129.922 70.6869 128.592L71.6264 125.125C71.681 124.636 71.8293 124.163 72.0622 123.736C72.2952 123.31 72.6079 122.938 72.9813 122.643L105.241 102.922C105.385 102.787 105.557 102.69 105.744 102.641C105.931 102.592 106.126 102.592 106.313 102.64C106.499 102.689 106.672 102.784 106.816 102.919C106.961 103.054 107.071 103.224 107.14 103.415L108.297 105.635C108.722 106.41 108.93 106.871 109.672 106.41L216.192 41.2881Z" fill="#E6E6E6"/>
<path d="M209.862 38.4399C210.851 37.8638 211.563 38.3247 211.563 39.4872C211.535 40.116 211.366 40.7287 211.07 41.2749C210.774 41.8211 210.36 42.2852 209.862 42.6291C208.873 43.2051 208.151 42.7338 208.151 41.5818C208.179 40.9514 208.348 40.3372 208.646 39.7905C208.944 39.2438 209.361 38.7807 209.862 38.4399Z" fill="#455A64"/>
<path d="M203.73 42.1781C204.67 41.6021 205.431 42.0629 205.431 43.2255C205.403 43.8543 205.234 44.467 204.938 45.0132C204.642 45.5594 204.228 46.0235 203.73 46.3674C202.741 46.9434 202.029 46.4721 202.029 45.3201C202.057 44.691 202.226 44.078 202.522 43.5317C202.817 42.9854 203.232 42.5214 203.73 42.1781Z" fill="#455A64"/>
<path d="M197.59 45.9679C198.529 45.3919 199.291 45.8527 199.291 47.0153C199.262 47.6441 199.093 48.2568 198.797 48.803C198.502 49.3492 198.088 49.8133 197.59 50.1572C196.601 50.7332 195.889 50.2619 195.889 49.1099C195.917 48.4808 196.085 47.8678 196.381 47.3215C196.677 46.7752 197.091 46.3112 197.59 45.9679Z" fill="#455A64"/>
<path opacity="0.5" d="M72.7643 133.452L70.6381 134.74L71.449 133.096C71.4802 133.035 71.4965 132.966 71.4965 132.897C71.4965 132.827 71.4802 132.759 71.449 132.698C71.3798 132.614 71.271 132.698 71.2018 132.813L70.0546 135.159V135.243C70.0497 135.284 70.0497 135.327 70.0546 135.368C70.0492 135.4 70.0492 135.432 70.0546 135.463V135.515L71.2018 136.458C71.2201 136.468 71.2404 136.473 71.2611 136.473C71.2818 136.473 71.3021 136.468 71.3204 136.458C71.3749 136.409 71.4188 136.348 71.449 136.28C71.4821 136.221 71.4996 136.154 71.4996 136.086C71.4996 136.018 71.4821 135.951 71.449 135.892L70.6381 135.243L72.7643 133.944C72.8174 133.896 72.86 133.837 72.8891 133.77C72.9182 133.703 72.9329 133.63 72.9324 133.557C72.9819 133.462 72.8533 133.389 72.7643 133.452Z" fill="#455A64"/>
<path opacity="0.5" d="M74.5334 132.362L76.6596 131.063L75.8487 130.404C75.7794 130.351 75.7695 130.173 75.8487 130.026C75.9278 129.88 76.0168 129.796 76.086 129.848L77.2431 130.791C77.2486 130.826 77.2486 130.861 77.2431 130.896C77.2479 130.937 77.2479 130.98 77.2431 131.021C77.2457 131.049 77.2457 131.077 77.2431 131.105L76.086 133.451C76.0606 133.505 76.0232 133.552 75.9772 133.587C75.9586 133.602 75.9361 133.61 75.9129 133.61C75.8898 133.61 75.8673 133.602 75.8487 133.587C75.8175 133.526 75.8012 133.458 75.8012 133.388C75.8012 133.319 75.8175 133.251 75.8487 133.189L76.6596 131.535L74.5334 132.896C74.4345 132.959 74.3652 132.896 74.3652 132.729C74.3656 132.658 74.3808 132.588 74.4099 132.525C74.439 132.462 74.4812 132.406 74.5334 132.362Z" fill="#455A64"/>
<path opacity="0.5" d="M81.4965 125.889C81.4965 125.753 81.3679 125.774 81.3185 125.889L81.0218 126.643C80.5273 126.58 79.9241 127.093 79.5186 128.004C78.9945 129.188 78.9945 130.581 79.5186 131.146C79.6502 131.278 79.8215 131.357 80.0023 131.368C80.1831 131.38 80.362 131.323 80.5076 131.209C80.9444 130.913 81.2886 130.487 81.4965 129.984C81.5657 129.827 81.5657 129.649 81.4965 129.586C81.4273 129.523 81.3185 129.586 81.2592 129.732C80.8636 130.612 80.2702 131 79.8351 130.602C79.6362 130.252 79.5311 129.852 79.5311 129.444C79.5311 129.037 79.6362 128.636 79.8351 128.287C80.112 127.659 80.5174 127.24 80.824 127.24L80.6064 127.805C80.5471 127.952 80.6064 128.099 80.6856 128.036L81.5558 127.439C81.5891 127.408 81.6152 127.369 81.6323 127.325C81.6495 127.282 81.6571 127.235 81.6547 127.188L81.4965 125.889Z" fill="#455A64"/>
<path opacity="0.5" d="M104.303 107.174L105.084 105.436C105.128 105.354 105.152 105.262 105.152 105.169C105.152 105.075 105.128 104.983 105.084 104.902C104.985 104.807 104.837 104.902 104.748 105.101L103.976 106.839L103.205 106.043C103.106 105.959 102.968 106.043 102.869 106.253C102.824 106.334 102.801 106.426 102.801 106.52C102.801 106.613 102.824 106.705 102.869 106.787L103.64 107.583L102.869 109.311C102.824 109.393 102.8 109.487 102.8 109.583C102.8 109.679 102.824 109.773 102.869 109.855C102.893 109.873 102.923 109.883 102.953 109.883C102.983 109.883 103.012 109.873 103.037 109.855C103.11 109.798 103.167 109.723 103.205 109.635L103.976 107.907L104.748 108.693C104.759 108.705 104.772 108.714 104.786 108.72C104.801 108.726 104.816 108.73 104.832 108.73C104.847 108.73 104.863 108.726 104.877 108.72C104.892 108.714 104.905 108.705 104.916 108.693C104.991 108.643 105.049 108.57 105.084 108.483C105.129 108.401 105.153 108.307 105.153 108.211C105.153 108.115 105.129 108.022 105.084 107.939L104.303 107.174Z" fill="#455A64"/>
<path d="M84.3145 128.025V125.124C84.3371 124.627 84.4708 124.143 84.7046 123.711C84.9384 123.28 85.2657 122.913 85.6594 122.642L207.242 48.3454C207.983 47.8951 208.586 48.2616 208.586 49.1728V52.0739C208.564 52.5708 208.43 53.055 208.196 53.4865C207.963 53.918 207.635 54.2846 207.242 54.556L85.6594 128.852C84.9177 129.303 84.3145 128.936 84.3145 128.025Z" fill="#FAFAFA"/>
<path d="M206.49 49.8847L206.846 50.6806C206.862 50.6934 206.881 50.7003 206.9 50.7003C206.92 50.7003 206.939 50.6934 206.955 50.6806L207.756 50.3559C207.874 50.3559 207.934 50.4921 207.835 50.6701L207.261 51.8117C207.243 51.8838 207.243 51.9596 207.261 52.0316L207.4 53.079C207.4 53.2361 207.281 53.456 207.172 53.4455L206.46 53.3513C206.432 53.3498 206.404 53.3569 206.379 53.3718C206.355 53.3866 206.335 53.4086 206.322 53.435L205.61 54.3986C205.491 54.5452 205.363 54.4928 205.382 54.3043L205.521 53.1104C205.534 53.0846 205.541 53.0558 205.541 53.0266C205.541 52.9974 205.534 52.9686 205.521 52.9428L204.937 52.5029C204.848 52.4296 204.937 52.1783 205.026 52.0735L205.817 51.4347C205.876 51.383 205.917 51.3134 205.936 51.2357L206.292 50.0103C206.233 49.8532 206.391 49.759 206.49 49.8847Z" stroke="#E0E0E0" stroke-width="0.9" stroke-miterlimit="10"/>
<g opacity="0.5">
<path d="M210.18 47.9988C210.098 47.9967 210.018 47.9726 209.947 47.9286C209.876 47.8846 209.817 47.8223 209.775 47.7474C209.714 47.632 209.699 47.4958 209.732 47.3684C209.765 47.2409 209.845 47.1326 209.953 47.0667L213.751 44.7416C213.856 44.6961 213.974 44.6924 214.082 44.7313C214.19 44.7702 214.281 44.849 214.339 44.9533C214.397 45.0577 214.417 45.1805 214.396 45.2994C214.375 45.4182 214.315 45.5251 214.225 45.6004L210.447 47.9255C210.369 47.9814 210.275 48.0073 210.18 47.9988Z" fill="#455A64"/>
<path d="M210.18 50.3237C210.098 50.3217 210.017 50.2975 209.946 50.2536C209.875 50.2096 209.816 50.1472 209.774 50.0724C209.744 50.016 209.725 49.9539 209.718 49.8897C209.711 49.8255 209.716 49.7604 209.732 49.6982C209.749 49.6359 209.777 49.5777 209.814 49.5269C209.852 49.4761 209.899 49.4337 209.952 49.4021L213.75 47.0666C213.856 47.021 213.973 47.0174 214.081 47.0563C214.19 47.0951 214.281 47.174 214.338 47.2783C214.396 47.3826 214.416 47.5055 214.395 47.6243C214.375 47.7431 214.314 47.85 214.225 47.9254L210.447 50.2609C210.365 50.308 210.273 50.3298 210.18 50.3237Z" fill="#455A64"/>
<path d="M210.18 52.6499C210.077 52.6499 209.977 52.6138 209.896 52.5473C209.814 52.4807 209.756 52.3875 209.73 52.2821C209.704 52.1767 209.712 52.0652 209.752 51.965C209.792 51.8647 209.863 51.7815 209.952 51.7282L213.75 49.4032C213.803 49.368 213.862 49.3446 213.923 49.3345C213.985 49.3244 214.048 49.3278 214.108 49.3445C214.168 49.3612 214.225 49.3909 214.274 49.4316C214.323 49.4723 214.363 49.5232 214.393 49.5812C214.454 49.6954 214.471 49.8307 214.44 49.958C214.409 50.0852 214.331 50.1944 214.225 50.262L210.447 52.587C210.365 52.6341 210.273 52.6559 210.18 52.6499Z" fill="#455A64"/>
</g>
<path d="M102.541 177.929C107.97 172.075 109.364 169.414 109.364 167.068C109.364 164.722 108.435 163.246 105.547 164.974C103.508 166.181 101.98 168.166 101.275 170.525C101.094 171.02 100.81 171.466 100.443 171.829C100.077 172.192 99.6376 172.462 99.1584 172.619L95.3905 173.499C94.4906 173.719 93.8873 173.111 94.1049 172.158C95.7564 165.026 99.9199 158.439 105.765 154.867C112.786 150.573 116.88 153.82 116.88 161.067C116.88 168.032 113.419 173.845 109.958 178.023C109.313 178.899 108.937 179.962 108.88 181.071V183.438C108.852 183.968 108.707 184.485 108.456 184.945C108.205 185.405 107.856 185.797 107.436 186.088L102.808 188.915C102.007 189.408 101.364 189.01 101.364 188.036V180.893C101.434 179.794 101.848 178.751 102.541 177.929Z" fill="#455A64"/>
<path d="M101.275 198.738C101.265 197.284 101.612 195.852 102.284 194.583C102.955 193.314 103.926 192.252 105.102 191.501C107.584 189.972 108.88 191.323 108.88 194.088C108.9 195.543 108.563 196.978 107.9 198.252C107.238 199.527 106.273 200.597 105.102 201.357C102.561 202.907 101.275 201.503 101.275 198.738Z" fill="#455A64"/>
<path d="M254.624 9.18809L250.994 6.94684C250.642 6.76764 250.251 6.69343 249.862 6.73218C249.474 6.77093 249.103 6.92119 248.789 7.16677L158.428 62.4021C157.525 63.0252 156.773 63.8648 156.234 64.8528C155.694 65.8408 155.382 66.9494 155.323 68.089V205.716C155.288 206.116 155.35 206.519 155.505 206.885C155.659 207.252 155.899 207.571 156.203 207.811L159.862 210.052L248.749 152.345C249.651 151.722 250.401 150.882 250.939 149.894C251.476 148.906 251.787 147.797 251.845 146.658L254.624 9.18809Z" fill="#BA68C8"/>
<path opacity="0.15" d="M159.803 210.053L156.193 207.843C155.889 207.604 155.648 207.285 155.495 206.918C155.343 206.551 155.283 206.147 155.323 205.748V68.0893C155.364 66.8823 155.705 65.7082 156.312 64.6855L160.011 66.9163C159.4 67.9411 159.059 69.1196 159.022 70.3306V207.968C158.978 208.357 159.027 208.751 159.163 209.115C159.3 209.479 159.52 209.801 159.803 210.053Z" fill="black"/>
<path d="M162.056 64.6525L252.417 9.40674C254.128 8.35943 255.512 9.20776 255.512 11.3024V148.93C255.454 150.069 255.144 151.177 254.606 152.165C254.068 153.153 253.318 153.993 252.417 154.617L162.056 209.862C160.345 210.91 158.951 210.061 158.951 207.967V70.3289C159.012 69.1912 159.325 68.0846 159.864 67.0986C160.404 66.1125 161.154 65.2746 162.056 64.6525Z" fill="#BA68C8"/>
<path opacity="0.4" d="M250.993 6.94602L254.533 9.11396C254.19 8.98297 253.822 8.94123 253.461 8.99227C253.1 9.04331 252.755 9.18561 252.456 9.4072L162.096 64.653C161.236 65.2151 160.519 65.9918 160.009 66.9152L156.34 64.6844C156.85 63.7549 157.566 62.9712 158.427 62.4012L248.738 7.21832C249.052 6.97334 249.424 6.82429 249.813 6.78736C250.202 6.75044 250.593 6.82704 250.943 7.00886L250.993 6.94602Z" fill="white"/>
<path d="M172.313 70.0569L244.675 25.8079C245.971 25.0119 247.019 25.6613 247.019 27.2427V144.971C246.975 145.833 246.739 146.672 246.332 147.42C245.925 148.168 245.357 148.803 244.675 149.276L172.313 193.441C171.018 194.226 169.959 193.587 169.959 192.006V74.3823C169.999 73.515 170.232 72.6701 170.642 71.9178C171.051 71.1655 171.624 70.5275 172.313 70.0569Z" fill="white"/>
<path d="M229.653 95.9796L230.384 95.3407C229.176 93.9534 227.607 92.9766 225.875 92.5339L225.637 93.4975C227.173 93.8994 228.567 94.7611 229.653 95.9796Z" fill="#37474F"/>
<path d="M231.263 99.8842L229.77 98.3342C229.416 97.9441 229.219 97.4244 229.219 96.8837C229.219 96.343 229.416 95.8232 229.77 95.4331C230.138 95.0587 230.629 94.8496 231.139 94.8496C231.65 94.8496 232.141 95.0587 232.509 95.4331L233.993 96.9832C234.346 97.3732 234.544 97.893 234.544 98.4337C234.544 98.9744 234.346 99.4941 233.993 99.8842C233.625 100.256 233.136 100.463 232.628 100.463C232.12 100.463 231.631 100.256 231.263 99.8842Z" fill="#BA68C8"/>
<mask id="mask0_1_1550" style="mask-type:luminance" maskUnits="userSpaceOnUse" x="169" y="25" width="79" height="169">
<path d="M172.311 70.0588L244.673 25.8098C245.969 25.0139 247.017 25.6632 247.017 27.2447V144.973C246.973 145.835 246.738 146.674 246.331 147.422C245.923 148.17 245.356 148.805 244.673 149.278L172.311 193.443C171.016 194.228 169.958 193.589 169.958 192.008V74.3842C169.997 73.5169 170.231 72.672 170.64 71.9197C171.05 71.1674 171.622 70.5295 172.311 70.0588Z" fill="white"/>
</mask>
<g mask="url(#mask0_1_1550)">
<path d="M244.427 135.684L247.77 141.738C247.77 141.738 269.666 129.442 270.902 127.829C272.138 126.216 272.059 122.959 272.247 121.2C272.553 118.267 271.535 115.743 271.386 114.685C271.139 112.842 273.641 112.737 274.877 115.303C275.787 117.168 275.866 119.304 276.638 119.325C277.742 118.503 278.772 117.574 279.713 116.55C281.068 114.979 283.521 112.36 285.38 112.716C285.696 112.794 285.983 112.971 286.203 113.223C286.423 113.475 286.567 113.791 286.616 114.13C286.67 115.213 286.904 116.277 287.309 117.272C287.61 117.65 287.857 118.074 288.04 118.529C288.1 119.205 288.1 119.885 288.04 120.561C288.119 121.535 289.029 121.943 289.128 122.896C289.1 123.631 289.024 124.362 288.901 125.085C288.901 125.557 289.039 125.965 289.039 126.436C288.944 127.404 288.547 128.31 287.912 129.013C286.06 131.298 283.865 133.244 281.414 134.773C279.436 136.155 276.786 137.381 274.492 138.679C272.197 139.978 246.425 160.945 242.993 158.474C241.589 157.426 237.89 152.431 234.004 146.838" fill="#FFA8A7"/>
<path d="M233.192 147.56C229.241 141.736 225.609 135.676 222.314 129.41C218.358 117.681 222.838 109.868 222.838 109.868C222.838 109.868 228.525 108.003 233.262 115.921C235.348 119.409 240.807 129.211 244.387 135.684" fill="#FFA8A7"/>
<path d="M212.889 110.046C212.889 110.046 219.159 107.354 223.224 107.637C227.288 107.92 230.295 109.135 233.281 114.214C237.237 120.99 243.853 132.699 243.853 132.699C241.057 138.787 236.594 143.842 231.046 147.205L218.902 127.808L212.889 110.046Z" fill="#455A64"/>
<path d="M192.992 121.778C190.9 123.561 189.358 125.964 188.561 128.679C187.634 131.961 187.18 135.371 187.216 138.796V160.842L186.949 202.567C200.162 207.332 216.954 203.133 231.047 186.543C231.047 186.543 230.265 133.13 230.265 124.406C230.265 124.008 230.265 123.61 230.265 123.202C229.751 110.833 219.674 105.094 209.745 111.043L201.398 116.028L193.021 121.778H192.992Z" fill="#F0F0F0"/>
<path d="M197.591 71.023C197.591 71.023 191.114 70.4889 189.68 76.8565C188.364 82.533 198.135 104.945 197.918 104.568C197.7 104.191 197.591 71.023 197.591 71.023Z" fill="#263238"/>
<path d="M220.464 58.2048C220.464 58.2048 218.06 51.3554 206.391 56.2254C200.457 58.7076 198.232 66.4891 198.232 66.4891L220.464 58.2048Z" fill="#BA68C8"/>
<path opacity="0.4" d="M220.464 58.2048C220.464 58.2048 218.06 51.3554 206.391 56.2254C200.457 58.7076 198.232 66.4891 198.232 66.4891L220.464 58.2048Z" fill="black"/>
<path d="M202.041 76.3976C202.041 85.8234 208.271 91.6674 215.965 89.4785C223.659 87.2897 229.889 77.9581 229.889 68.5323C229.889 59.1065 223.254 59.1065 215.56 61.3058C207.865 63.5052 202.041 66.9927 202.041 76.3976Z" fill="#263238"/>
<path d="M194.773 91.29C194.773 91.29 196.82 102.496 197.641 104.203C197.888 104.698 198.248 105.119 198.689 105.428C199.129 105.737 199.636 105.925 200.163 105.973L200.024 97.7205L194.773 91.29Z" fill="#263238"/>
<path d="M197.343 73.6746C196.532 73.8138 195.759 74.1366 195.076 74.621C194.394 75.1054 193.818 75.7399 193.387 76.4814C191.706 79.0682 192.646 85.4149 194.752 91.2904L198.609 90.7353L197.343 73.6746Z" fill="#263238"/>
<path d="M199.795 90.4109C199.014 91.1964 197.916 89.6882 196.957 88.7352C195.998 87.7821 192.882 86.9966 191.32 91.4477C189.757 95.8988 192.694 100.549 195.157 100.8C199.39 101.219 200.023 97.7211 200.023 97.7211L200.161 116.856C207.272 124.836 219.713 115.431 214.115 111.902V106.215C216.058 106.038 217.973 105.616 219.821 104.958C222.937 103.481 224.895 99.931 225.844 95.5323C227.357 88.4838 227.931 82.9645 226.645 70.3234C225.241 56.457 211.663 60.1645 204.334 67.8832C197.006 75.6019 199.795 90.4109 199.795 90.4109Z" fill="#FFA8A7"/>
<path d="M199.797 92.0543C199.401 92.1799 197.918 89.5931 196.958 88.7867C195.623 87.6765 197.344 73.7263 197.344 73.7263C195.801 70.1235 198.649 64.688 201.626 62.4782C203.765 61.024 206.178 60.0838 208.697 59.7237C210.833 59.3188 212.963 59.0081 215.086 58.7916C217.682 58.6478 220.265 58.3189 222.819 57.8071C224.819 57.3049 226.757 56.5598 228.595 55.5868C230.217 54.8013 231.562 56.5713 230.128 59.5143C228.844 62.1908 227.061 64.5637 224.886 66.4894C218.577 71.506 211.249 72.7104 204.87 73.454C203.436 73.6216 203.119 75.4125 202.348 80.2825C201.666 84.5136 201.102 91.6039 199.797 92.0543Z" fill="#263238"/>
<path d="M192.488 73.7896L187.8 72.0406C188.463 70.2078 190.055 69.1185 191.34 69.6003C192.626 70.0821 193.15 71.9568 192.488 73.7896Z" fill="#263238"/>
<path d="M214.106 106.214C214.106 106.214 207.183 106.476 204.73 105.586C203.265 105.045 202.058 103.917 201.368 102.444C201.703 103.992 202.354 105.444 203.277 106.696C205.057 108.969 214.106 108.445 214.106 108.445V106.214Z" fill="#F28F8F"/>
<path d="M212.425 84.7236C212.419 85.1796 212.284 85.6231 212.037 85.9967C211.79 86.3703 211.443 86.6565 211.04 86.8183C210.279 87.0277 209.656 86.4098 209.656 85.4358C209.649 84.9692 209.779 84.5118 210.027 84.1258C210.274 83.7398 210.628 83.4439 211.04 83.2783C211.812 83.1003 212.425 83.6763 212.425 84.7236Z" fill="#263238"/>
<path d="M210.2 78.2826L207.233 81.1418C207.025 80.607 206.98 80.0166 207.104 79.4533C207.228 78.89 207.515 78.3818 207.925 77.9998C208.072 77.8167 208.259 77.6748 208.47 77.5867C208.681 77.4987 208.909 77.4673 209.134 77.4953C209.359 77.5233 209.574 77.6098 209.76 77.7472C209.946 77.8845 210.097 78.0685 210.2 78.2826Z" fill="#263238"/>
<path d="M213.483 96.1699L216.657 96.725C216.566 97.2593 216.3 97.7425 215.906 98.0893C215.511 98.4361 215.014 98.6243 214.501 98.6206C213.621 98.474 213.166 97.3743 213.483 96.1699Z" fill="#F28F8F"/>
<path d="M225.212 75.5169L222.492 73.726C223.056 72.6787 224.104 72.1236 224.856 72.6158C225.237 72.9716 225.483 73.4618 225.549 73.9955C225.614 74.5291 225.495 75.0697 225.212 75.5169Z" fill="#263238"/>
<path d="M224.025 80.9223C224.033 81.392 223.903 81.8526 223.653 82.2408C223.403 82.629 223.046 82.9258 222.631 83.0902C221.859 83.2997 221.236 82.6818 221.236 81.7078C221.229 81.2395 221.359 80.7805 221.609 80.3941C221.859 80.0077 222.216 79.7129 222.631 79.5503C223.402 79.3304 224.025 79.9483 224.025 80.9223Z" fill="#263238"/>
<path d="M217.141 81.5073L217.3 91.7919L222.294 89.027L217.141 81.5073Z" fill="#F28F8F"/>
<path d="M172.064 184.215C175.961 141.799 182.261 126.728 192.13 122.508C195.443 125.252 195.977 137.767 192.229 147.162C192.229 147.162 183.981 175.292 183.329 184.865C182.912 193.817 183.227 202.791 184.268 211.687C184.321 212.221 184.48 212.738 184.734 213.204C184.987 213.669 185.331 214.073 185.742 214.389C187.848 215.918 187.66 218.054 189.144 220.117C190.311 221.73 191.418 222.044 191.122 222.631C190.875 223.218 190.446 223.697 189.906 223.991C189.367 224.284 188.749 224.373 188.155 224.244C187.209 223.896 186.333 223.364 185.574 222.673C186.131 224.931 187.012 227.085 188.184 229.061C190.855 233.638 190.657 236.665 184.11 237.513C180.006 238.047 177.088 235.282 175.279 224.38C174.764 221.238 173.498 215.583 173.014 211.519C171.61 199.925 171.432 191.044 172.064 184.215Z" fill="#FFA8A7"/>
<path d="M194.959 120.497C194.959 120.497 187.779 122.948 184.08 129.033C180.382 135.118 176.683 144.963 173.874 162.547C173.874 162.547 178.226 169.187 190.103 164.066C190.103 164.066 195.73 141.695 196.393 132.803C197.075 123.105 194.959 120.497 194.959 120.497Z" fill="#455A64"/>
<path d="M201.634 58.538C194.919 62.989 192.021 68.3932 191.853 74.9074C191.795 79.3823 191.963 83.8573 192.358 88.3131C191.093 89.2775 190.05 90.5319 189.307 91.9826C188.564 93.4333 188.14 95.043 188.066 96.6916C188.066 101.101 191.438 103.719 195.602 102.536C197.691 101.881 199.537 100.556 200.887 98.7446C202.236 96.9329 203.023 94.7229 203.137 92.4185C203.223 90.9881 202.8 89.5755 201.953 88.4576C201.106 87.3398 199.896 86.5972 198.558 86.3755C197.718 80.1535 197.734 73.8351 198.608 67.6182C200.101 58.1923 216.735 52.7568 220.464 58.1923C219.346 53.5004 210.97 52.3064 201.634 58.538Z" fill="#BA68C8"/>
<path opacity="0.15" d="M201.634 58.538C194.919 62.989 192.021 68.3932 191.853 74.9074C191.795 79.3823 191.963 83.8573 192.358 88.3131C191.093 89.2775 190.05 90.5319 189.307 91.9826C188.564 93.4333 188.14 95.043 188.066 96.6916C188.066 101.101 191.438 103.719 195.602 102.536C197.691 101.881 199.537 100.556 200.887 98.7446C202.236 96.9329 203.023 94.7229 203.137 92.4185C203.223 90.9881 202.8 89.5755 201.953 88.4576C201.106 87.3398 199.896 86.5972 198.558 86.3755C197.718 80.1535 197.734 73.8351 198.608 67.6182C200.101 58.1923 216.735 52.7568 220.464 58.1923C219.346 53.5004 210.97 52.3064 201.634 58.538Z" fill="black"/>
<path d="M199.212 93.5294C199.234 93.0607 199.145 92.5937 198.954 92.1703C198.763 91.7468 198.475 91.3802 198.118 91.1031C197.76 90.8261 197.343 90.6473 196.904 90.5827C196.465 90.5181 196.018 90.5698 195.603 90.7331C194.602 91.0474 193.717 91.6824 193.071 92.5507C192.425 93.419 192.048 94.478 191.993 95.5821C191.978 96.0487 192.072 96.5119 192.266 96.9309C192.461 97.3498 192.75 97.7115 193.108 97.9839C193.466 98.2563 193.881 98.431 194.318 98.4925C194.755 98.554 195.2 98.5005 195.613 98.3366C196.606 98.0242 197.485 97.3951 198.129 96.5349C198.773 95.6748 199.152 94.6253 199.212 93.5294Z" fill="#BA68C8"/>
</g>
<path d="M142.269 160.819C142.106 160.987 141.958 161.169 141.824 161.363C141.586 161.673 141.408 162.029 141.3 162.411C141.228 162.631 141.228 162.871 141.3 163.091C141.326 163.247 141.399 163.391 141.507 163.5C141.56 163.564 141.62 163.62 141.686 163.667L138.056 161.447C137.911 161.362 137.791 161.235 137.71 161.081C137.652 160.935 137.623 160.778 137.623 160.62C137.623 160.461 137.652 160.305 137.71 160.159C137.789 159.899 137.902 159.652 138.046 159.426C138.234 159.127 138.445 158.847 138.679 158.588L142.269 160.819Z" fill="#BA68C8"/>
<path d="M142.299 160.777C140.41 162.871 141.072 164.285 143.782 163.919L158.953 162.065V142.449L142.299 160.777Z" fill="#BA68C8"/>
<path d="M142.297 160.778C141.101 162.097 140.933 163.144 141.645 163.658L138.015 161.437C137.254 160.935 137.422 159.866 138.628 158.526L155.292 140.229L158.961 142.481L142.297 160.778Z" fill="#BA68C8"/>
<path opacity="0.15" d="M142.269 160.819C142.106 160.987 141.958 161.169 141.824 161.363C141.594 161.678 141.417 162.032 141.3 162.411C141.242 162.633 141.242 162.869 141.3 163.091C141.329 163.247 141.401 163.389 141.507 163.5C141.56 163.564 141.62 163.62 141.686 163.667L138.056 161.447C137.911 161.362 137.791 161.235 137.71 161.081C137.652 160.935 137.623 160.778 137.623 160.62C137.623 160.461 137.652 160.305 137.71 160.159C137.793 159.901 137.906 159.655 138.046 159.426C138.234 159.127 138.445 158.847 138.679 158.588L142.269 160.819Z" fill="black"/>
<path opacity="0.4" d="M158.961 142.45L142.298 160.778L138.619 158.526L155.292 140.229L158.961 142.45Z" fill="white"/>
<path d="M244.426 135.684L247.769 141.737C247.769 141.737 269.664 129.442 270.9 127.829C272.136 126.216 272.057 122.959 272.245 121.199C272.552 118.267 271.533 115.743 271.385 114.685C271.088 112.433 274.144 112.957 275.113 113.847C275.75 114.565 276.28 115.381 276.686 116.267C277.16 117.104 278.05 119.838 278.96 120.005C279.672 120.142 281.086 119.073 281.67 118.613C284.073 116.686 285.557 114.015 287.406 111.575C287.735 111.05 288.193 110.63 288.731 110.36C289.203 110.26 289.691 110.275 290.157 110.404C290.623 110.533 291.055 110.772 291.421 111.103C292.201 111.565 292.876 112.201 293.399 112.968C293.718 113.542 293.946 114.168 294.071 114.821C295.06 119.262 292.904 123.011 290.363 126.342C287.812 129.617 284.788 132.445 281.403 134.72C279.425 136.103 276.775 137.328 274.48 138.627C272.186 139.925 247.6 161.741 244.159 159.269C240.045 155.88 236.359 151.945 233.191 147.56" fill="#FFA8A7"/>
<path d="M405.944 97.8418C413.856 97.8418 418.01 100.355 421.293 108.095C424.438 115.5 434.199 136.98 433.714 142.185C433.23 147.39 413.183 169.551 413.183 169.551L407.457 162.22L419.879 140.122L407.645 121.375L405.944 97.8418Z" fill="#FFA8A7"/>
<path d="M386.739 325.769C386.739 325.769 387.629 328.628 388.114 331.142C388.499 333.131 389.043 336.451 388.381 337.949C387.718 339.447 385.157 340.41 381.181 340.379C378.6 340.379 374.585 342.212 371.836 343.845C369.086 345.479 363.083 346.191 360.077 345.814C356.536 345.374 352.867 343.196 352.294 341.625C351.72 340.054 351.236 337.949 360.829 334.692C360.908 334.692 372.429 330.691 376.464 325.968L386.739 325.769Z" fill="#263238"/>
<path d="M386.739 326.052L384.91 325.811L376.464 325.989C372.429 330.712 360.908 334.692 360.829 334.713L359.296 335.258C357.625 336.682 359.039 339.101 362.995 339.447C366.95 339.793 379.283 335.425 382.012 334.032C383.444 333.328 384.653 332.2 385.492 330.783C386.331 329.367 386.764 327.724 386.739 326.052Z" fill="#FFA8A7"/>
<path d="M386.74 322.206C386.74 322.206 386.74 324.647 386.74 326.05C386.74 327.453 385.197 329.527 381.162 329.37C378.334 329.265 376.356 328.459 376.464 325.987V322.458L386.74 322.206Z" fill="#FFA8A7"/>
<path d="M413.818 309.712C414.54 310.026 414.688 311.513 414.717 314.456C414.717 316.677 415.103 320.573 412.621 321.285C410.139 321.997 406.549 321.484 405.026 319.347C403.127 316.677 401.851 314.331 399.092 311.052C396.728 308.214 394.147 305.554 393.277 301.627C392.476 298.087 393.277 296.589 395.542 295.626C397.806 294.662 399.893 295.458 403.058 298.254C403.941 298.888 404.886 299.418 405.876 299.836C407.983 300.537 413.086 309.398 413.818 309.712Z" fill="#263238"/>
<path d="M413.886 306.989L413.787 310.602C413.787 310.602 411.512 315.326 405.173 310.602C405.035 310.246 404.461 303.271 404.461 303.271L413.886 306.989Z" fill="#FFA8A7"/>
<path d="M405.905 299.858C404.914 299.44 403.969 298.91 403.086 298.276C400.535 297.407 395.175 298.412 397.578 302.35C399.591 305.587 402.169 308.388 405.173 310.603C408.041 312.101 409.04 310.247 409.04 310.247L408.051 301.774C407.481 300.973 406.747 300.318 405.905 299.858Z" fill="#FFA8A7"/>
<path d="M418.514 257.055C417.248 245.21 414.826 238.371 414.826 238.371C414.826 238.371 416.972 222.431 418.653 207.151C422.609 171.259 419.978 170.683 415.191 158.199C415.191 158.199 371.747 152.282 369.927 171.416C367.662 195.243 368.691 241.45 369.067 249.902C369.442 258.354 370.056 262.177 372.469 279.876C374.268 293.355 375.979 322.816 375.979 322.816C381.676 326.293 387.155 322.209 387.155 322.209C387.155 322.209 392.604 285.982 392.475 276.231C392.364 269.014 391.367 261.843 389.508 254.898C389.508 254.898 393.207 216.063 394.146 209.863C394.146 209.863 395.195 222.253 395.58 230.705C395.966 239.157 398.122 247.273 400.031 263.014C401.682 276.629 404.432 305.148 404.432 305.148C410.128 308.625 414.104 307.054 414.104 307.054C414.104 307.054 419.77 268.89 418.514 257.055Z" fill="#BA68C8"/>
<path d="M387.56 90.0924L389.153 107.98L403.987 106.986L402.8 87.1494L387.56 90.0924Z" fill="#FFA8A7"/>
<path d="M417.319 105.435C415.806 100.701 412.74 97.9253 405.946 97.8416L403.444 97.9253C402.969 100.565 395.661 102.701 388.441 100.02C387.452 100.303 384.634 100.847 383.061 101.067L379.6 101.601C374.349 103.424 372.025 113.122 371.52 128.423C371.016 143.724 368.85 176.537 368.85 176.537C368.85 176.537 380.154 182.946 397.995 180.464C413.966 178.244 420.177 168.242 419.623 169.52C417.751 161.032 414.984 152.794 411.375 144.96C419.781 123.061 419.554 112.462 417.319 105.435Z" fill="#455A64"/>
<path d="M389.152 181.008C392.108 181.041 395.062 180.852 397.993 180.443C412.55 178.421 418.998 169.97 419.602 169.414C417.731 160.956 414.971 152.746 411.373 144.939C415.626 133.879 417.663 125.71 418.355 119.416C417.663 124.003 411.265 141.765 402.888 147.096C402.888 147.096 407.615 147.871 411.66 153.757C415.705 159.643 412.382 179.741 389.152 181.008Z" fill="#37474F"/>
<path d="M383.061 101.045C376.088 101.978 370.085 103.297 367.544 110.545C364.191 120.414 359.048 129.494 352.403 137.272C348.071 142.184 330.29 151.589 326.285 150.887C322.279 150.185 318.67 144.142 316.613 145.399C314.556 146.656 319.065 150.971 318.818 152.039C318.571 153.107 311.351 150.887 307.939 148.321C304.528 145.755 302.5 153.118 306.951 158.627C311.401 164.136 319.728 164.565 328.787 162.648C337.846 160.732 354.401 155.034 360.977 148.541C369.601 140.005 371.173 135.366 374.912 128.014C386.819 118.232 383.061 101.045 383.061 101.045Z" fill="#FFA8A7"/>
<path d="M379.798 67.8778C379.798 67.8778 374.201 60.8085 378.592 53.9171C383.774 45.79 392.892 43.046 404.166 46.586C409.744 48.335 417.942 56.504 418.358 67.9616C418.674 76.7905 395.295 82.624 395.671 88.6775L379.798 67.8778Z" fill="#263238"/>
<path d="M376.593 70.4641C376.593 70.4641 373.31 75.7007 373.735 76.2872C374.506 76.8222 375.359 77.2087 376.257 77.4287L376.593 70.4641Z" fill="#F28F8F"/>
<path d="M386.592 53.8019C383.397 55.5509 377.879 58.7766 376.455 71.2396C375.001 84.0273 377.691 88.4679 379.333 90.1436C380.45 91.2747 386.186 91.6832 389.222 90.6987C392.97 89.4734 401.09 85.2318 404.877 78.6337C409.348 70.8626 410.267 60.5152 405.105 56.4516C397.797 50.7437 389.292 52.3252 386.592 53.8019Z" fill="#FFA8A7"/>
<path d="M385.651 54.3461C385.651 54.3461 382.862 66.0131 386.195 73.3862C386.195 73.3862 388.172 68.8304 391.842 70.1396C395.511 71.4487 395.224 76.7062 392.296 79.3873C391.55 80.1589 390.612 80.6903 389.591 80.9202C388.571 81.1501 387.509 81.0689 386.531 80.686C386.531 80.686 386.63 87.1479 391.842 89.7034C391.842 89.7034 402.72 95.2227 412.61 84.0793C421.51 73.9622 420.393 55.8018 407.23 51.2041C394.067 46.6064 385.651 54.3461 385.651 54.3461Z" fill="#263238"/>
<path d="M429.938 103.571C427.862 103.571 425.808 103.137 423.891 102.294C421.975 101.451 420.234 100.216 418.77 98.6588C417.305 97.1019 416.145 95.2542 415.357 93.2215C414.568 91.1888 414.166 89.0112 414.174 86.8136V65.4065C418.352 65.4065 422.359 67.1642 425.313 70.293C428.268 73.4218 429.928 77.6654 429.928 82.0902L429.938 103.571Z" fill="#263238"/>
<path d="M377.167 49.1099C372.272 54.3465 371.995 69.6477 386.196 73.3971L395.502 46.3869C390.083 42.648 381.538 44.3761 377.167 49.1099Z" fill="#263238"/>
<path d="M384.772 77.5553C384.417 77.4301 384.088 77.2307 383.806 76.9689C383.524 76.707 383.295 76.388 383.131 76.0307C382.967 75.6734 382.873 75.285 382.853 74.8885C382.834 74.4919 382.889 74.0951 383.017 73.7217C383.144 73.3482 383.341 73.0055 383.595 72.7139C383.85 72.4222 384.157 72.1875 384.499 72.0236C384.84 71.8596 385.209 71.7698 385.584 71.7593C385.959 71.7489 386.332 71.818 386.681 71.9627L384.772 77.5553Z" fill="#263238"/>
<path opacity="0.1" d="M394.167 209.883L396.531 193.87C401.292 193.266 405.873 191.58 409.961 188.927C409.961 188.927 406.994 193.65 399.181 195.619L396.768 214.167L395.779 233.595L394.167 209.883Z" fill="black"/>
</svg>
