<svg width="33" height="32" viewBox="0 0 33 32" fill="none" xmlns="http://www.w3.org/2000/svg">
<g clip-path="url(#clip0_1_6892)">
<path d="M32.4383 16.3686C32.4383 15.2809 32.3501 14.1874 32.162 13.1174H17.0703V19.2787H25.7126C25.3539 21.2659 24.2016 23.0237 22.5143 24.1408V28.1386H27.6703C30.6981 25.3519 32.4383 21.2365 32.4383 16.3686Z" fill="#4285F4"/>
<path d="M17.0702 32.0012C21.3855 32.0012 25.0247 30.5843 27.6761 28.1386L22.5202 24.1408C21.0856 25.1167 19.2337 25.6694 17.0761 25.6694C12.9019 25.6694 9.3627 22.8533 8.09281 19.0671H2.77222V23.1884C5.48837 28.5913 11.0206 32.0012 17.0702 32.0012Z" fill="#34A853"/>
<path d="M8.08697 19.0671C7.41675 17.08 7.41675 14.9282 8.08697 12.9411V8.81982H2.77225C0.502917 13.3409 0.502917 18.6673 2.77225 23.1884L8.08697 19.0671Z" fill="#FBBC04"/>
<path d="M17.0702 6.33288C19.3513 6.29761 21.556 7.15596 23.208 8.73156L27.7761 4.16349C24.8836 1.44734 21.0445 -0.0459547 17.0702 0.00107822C11.0206 0.00107822 5.48837 3.41096 2.77222 8.81974L8.08693 12.941C9.35094 9.14897 12.896 6.33288 17.0702 6.33288Z" fill="#EA4335"/>
</g>
<defs>
<clipPath id="clip0_1_6892">
<rect width="32" height="32" fill="white" transform="translate(0.750244)"/>
</clipPath>
</defs>
</svg>
